<svg width="616" height="412" viewBox="0 0 616 412" fill="none" xmlns="http://www.w3.org/2000/svg">
<path d="M579.861 112.064C579.861 112.064 547.829 37.904 446.805 22.248C345.781 6.59198 300.698 34.608 271.861 72.512C243.024 110.416 222.581 64.272 137.984 60.976C108.005 59.8059 74.15 65.1949 53.5592 89.2639C37.7074 107.796 31.531 136.504 46.5778 157.409C59.9081 175.932 90.4124 203.816 75.5627 229.097C56.672 261.233 32.032 310.673 58.3147 347.753C84.5974 384.833 112.523 400.489 193.835 384.833C275.147 369.177 303.893 337.041 343.317 356.817C382.741 376.593 464.053 407.081 512.512 395.545C560.971 384.009 545.365 324.681 542.08 304.081C538.795 283.481 592.181 262.057 593.824 206.849C595.467 151.641 588.896 132.664 579.861 112.064Z" fill="#386DF4"/>
<path opacity="0.7" d="M579.861 112.064C579.861 112.064 547.829 37.904 446.805 22.248C345.781 6.59198 300.698 34.608 271.861 72.512C243.024 110.416 222.581 64.272 137.984 60.976C108.005 59.8059 74.15 65.1949 53.5592 89.2639C37.7074 107.796 31.531 136.504 46.5778 157.409C59.9081 175.932 90.4124 203.816 75.5627 229.097C56.672 261.233 32.032 310.673 58.3147 347.753C84.5974 384.833 112.523 400.489 193.835 384.833C275.147 369.177 303.893 337.041 343.317 356.817C382.741 376.593 464.053 407.081 512.512 395.545C560.971 384.009 545.365 324.681 542.08 304.081C538.795 283.481 592.181 262.057 593.824 206.849C595.467 151.641 588.896 132.664 579.861 112.064Z" fill="white"/>
<g opacity="0.3">
<path d="M447.29 155.373L457.77 144.867L459.109 144.596L451.857 152.951L453.737 154.838L467.979 139.182L470.131 139.717L473.351 135.944C473.351 135.944 477.113 141.069 477.113 145.106H479.798C479.798 145.106 479.264 137.295 474.427 131.922L476.579 130.035L479.264 132.458L487.051 125.718L491.617 121.944C493.501 121.364 495.306 120.55 496.989 119.521C497.808 118.92 498.577 118.253 499.289 117.527C500.636 116.151 501.826 114.52 501.826 113.325V109.815C501.826 109.815 504.29 112.781 503.469 115.212C502.648 117.643 498.098 125.99 498.098 125.99C498.098 125.99 496.217 131.922 496.217 135.96C496.217 139.998 493.531 145.395 494.878 147.817C495.499 149.099 496.421 150.21 497.564 151.056L498.631 172.875V183.389C498.631 183.389 494.328 188.243 492.989 188.778C491.65 189.314 488.422 189.602 488.422 191.473V193.03H500.652L502.393 192.28L505.884 191.209C505.884 191.209 506.418 190.385 506.418 187.435C506.418 184.485 506.147 182.038 506.147 181.231C506.147 180.423 505.613 174.762 505.613 174.762C506.128 172.554 506.403 170.297 506.434 168.03C506.434 164.52 507.789 149.441 507.789 149.441L511.551 141.085L512.627 139.437H514.508C514.508 139.437 517.194 146.178 518.532 148.608C519.871 151.039 524.446 163.696 524.446 163.696C524.446 163.696 525.522 172.051 526.861 174.482C528.199 176.913 529.817 183.101 529.817 183.101L531.969 191.728C531.901 192.151 531.868 192.578 531.871 193.006H540.536C539.419 189.265 535.608 182.837 534.918 180.95C534.097 178.792 533.275 165.855 531.969 163.432C531.217 162.177 530.662 160.812 530.327 159.386C530.327 159.386 530.064 141.324 528.446 138.63C526.828 135.935 523.345 129.467 523.345 129.467C523.345 129.467 525.497 127.044 525.497 124.614C525.497 122.183 526.319 121.383 525.497 120.576C524.759 119.663 524.128 118.668 523.616 117.61L523.345 116.258L525.497 115.187L526.836 114.108L533.012 128.387L536.774 125.965L533.826 117.61C533.826 117.61 535.969 110.869 535.969 109.526C535.857 106.815 535.583 104.113 535.148 101.434C534.877 100.61 533.809 97.9324 533.809 97.9324L532.733 94.4304V91.7359L533.555 90.3846L534.893 88.4976V86.347L548.035 73.987L546.696 71.2925L531.912 84.4765L527.345 79.6231H525.703L528.388 83.669L522.483 85.317L521.136 84.2376L520.06 84.5095L522.212 88.5471L520.331 89.8984L517.916 88.0115C517.916 88.0115 518.992 82.3506 518.45 78.5767C517.908 74.8027 512.274 74.8027 511.198 75.6103L503.674 64.5604L501.835 65.6234L509.358 77.2171C509.358 77.2171 506.935 78.28 506.935 80.752C506.935 83.224 507.198 86.9485 507.198 86.9485C507.198 86.9485 500.751 90.7224 498.607 93.4169C496.463 96.1114 494.845 101.772 494.845 101.772C494.664 103.384 494.574 105.004 494.574 106.626C494.574 109.32 493.753 110.663 493.753 113.902C493.753 113.902 491.601 113.366 488.381 115.55L484.62 113.127L475.486 123.369H470.378L473.605 119.595L472.53 118.771L462.854 129.277L464.735 130.925L466.082 129.038L467.421 131.189L458.304 139.207L455.347 138.663L457.228 141.901L445.68 154.03L447.29 155.373Z" stroke="black" stroke-linecap="round" stroke-linejoin="round"/>
<path d="M558.285 52.6207H442.584V193.269H558.285V52.6207Z" stroke="black" stroke-linecap="round" stroke-linejoin="round"/>
<path d="M562.613 193.319H438.263V206.577H562.613V193.319Z" stroke="black" stroke-linecap="round" stroke-linejoin="round"/>
<path d="M558.227 206.824H442.148V375.472H558.227V206.824Z" stroke="black" stroke-linecap="round" stroke-linejoin="round"/>
</g>
<g opacity="0.3">
<path d="M375.128 52.6207H259.426V193.269H375.128V52.6207Z" stroke="black" stroke-linecap="round" stroke-linejoin="round"/>
<path d="M379.456 193.319H255.106V206.577H379.456V193.319Z" stroke="black" stroke-linecap="round" stroke-linejoin="round"/>
<path d="M375.07 206.824H258.991V375.472H375.07V206.824Z" stroke="black" stroke-linecap="round" stroke-linejoin="round"/>
<path d="M285.003 133.084C285.602 133.282 287.409 135.499 288.214 135.499C288.322 135.525 288.434 135.53 288.544 135.513C288.653 135.496 288.759 135.458 288.854 135.4C288.949 135.342 289.031 135.266 289.097 135.176C289.163 135.087 289.21 134.985 289.237 134.876C289.263 134.768 289.268 134.656 289.251 134.546C289.234 134.436 289.196 134.33 289.138 134.235C289.081 134.139 289.005 134.056 288.916 133.991C288.826 133.925 288.724 133.877 288.617 133.851C288.036 133.346 287.56 132.733 287.212 132.046L288.617 127.613L290.415 128.017C290.415 128.017 292.222 130.431 292.822 129.228C293.421 128.025 292.428 127.209 292 126.41C291.573 125.611 290.793 123.592 290.793 123.592C290.793 123.592 297.618 109.905 298.013 108.496C298.407 107.087 302.029 99.8441 302.029 99.8441L302.85 107.491C302.85 107.491 299.639 114.132 301.043 115.731C302.448 117.329 302.448 118.351 302.448 118.351C302.448 118.351 300.436 120.362 300.436 121.169C300.436 121.977 301.446 121.993 301.446 121.993C301.446 121.993 298.234 129.244 297.635 134.872C297.035 140.5 294.021 162.649 294.021 164.462C294.021 166.275 295.623 169.291 296.23 171.878C296.838 174.466 298.029 179.129 298.029 179.929C298.029 180.728 295.22 181.338 296.83 182.953C297.559 183.574 298.171 184.322 298.637 185.161C297.253 186.661 295.778 188.073 294.218 189.388C292.814 190.393 290.612 190.599 291.212 192.404C291.277 192.597 291.362 192.782 291.467 192.956H298.965C299.62 192.482 300.332 192.094 301.084 191.803C301.912 191.648 302.669 191.234 303.247 190.619C303.824 190.004 304.191 189.221 304.296 188.383C304.493 185.969 304.296 175.1 304.69 174.499C305.084 173.897 307.097 166.852 307.097 166.852C307.878 166.629 308.695 166.559 309.503 166.646C310.513 166.852 315.121 166.852 315.121 166.852L315.326 145.115L317.133 147.735L319.942 181.939C319.942 181.939 322.349 180.538 325.149 179.129C326.725 178.363 328.208 177.418 329.568 176.311C329.568 176.311 331.211 182.747 331.572 185.161C331.934 187.575 332.394 190.599 333.379 191.605C334.18 192.268 335.126 192.731 336.139 192.956H345.461C345.375 192.454 345.15 191.985 344.812 191.605C343.005 189.388 340.402 186.776 339.597 184.56C338.792 182.343 336.591 174.095 336.591 174.095C337.151 173.632 337.626 173.074 337.995 172.447C338.293 171.667 338.494 170.853 338.595 170.024L341.198 167.816C341.198 167.816 344.41 176.056 344.41 173.856C344.41 171.656 333.535 133.488 333.535 133.488C333 131.433 332.33 129.415 331.531 127.448C330.529 125.232 330.529 125.438 329.93 124.226C329.33 123.015 328.928 122.413 328.928 122.413L329.322 118.994C329.322 118.994 329.322 110.54 328.5 109.106C327.679 107.672 325.692 108.282 325.692 108.282V105.464L327.498 100.025L330.702 106.873C330.702 106.873 331.104 109.889 331.309 110.894C331.515 111.899 331.704 118.31 332.509 120.353C333.313 122.397 336.525 130.011 336.525 130.011C336.525 130.011 334.316 134.04 335.515 134.642C336.714 135.243 337.929 136.051 338.931 136.051C339.933 136.051 342.537 136.248 342.537 134.444C342.537 132.639 342.34 130.217 342.34 130.217C342.77 129.342 342.976 128.373 342.94 127.399C342.94 125.586 339.334 112.905 338.726 110.696C338.118 108.488 337.724 106.065 337.527 105.258C337.33 104.45 334.513 97.8418 334.513 97.8418C334.513 97.8418 334.718 94.0184 334.118 91.9996C333.519 89.9808 329.905 86.7672 328.098 85.762C326.82 85.0742 325.474 84.5219 324.082 84.114L321.675 81.2959L321.881 79.6891C321.881 79.6891 323.482 69.6198 321.675 66.4062C319.868 63.1926 316.057 61.5776 313.257 64.1896C310.456 66.8017 309.043 78.6756 309.043 78.6756C309.043 78.6756 303.425 80.8921 301.421 83.7102C300.544 84.8666 299.74 86.0776 299.015 87.3358C299.015 87.3358 297.002 90.1539 296.805 92.766C296.604 94.4991 295.984 96.1567 294.998 97.5946C294.998 97.5946 292.592 103.231 291.59 105.645C290.451 108.185 289.512 110.811 288.781 113.498C288.378 115.508 285.775 122.562 285.775 124.16C285.775 125.759 285.167 128.791 285.167 130.604C285.167 132.417 284.395 132.878 285.003 133.084Z" stroke="black" stroke-linecap="round" stroke-linejoin="round"/>
</g>
<g opacity="0.3">
<path d="M219.156 262.749L158.345 211.916L95.8496 262.749V26.3515H219.156V262.749Z" stroke="black" stroke-linecap="round" stroke-linejoin="round"/>
<path d="M115.258 42.024V44.8833H111.751V41.8345C111.751 38.8351 110.56 37.0223 107.849 37.0223C105.139 37.0223 103.956 38.8351 103.956 41.8345V59.4186C103.956 62.418 105.196 64.2308 107.849 64.2308C110.502 64.2308 111.751 62.418 111.751 59.4186V52.736H108.326V49.44H115.258V59.2291C115.258 64.2802 112.884 67.6174 107.759 67.6174C102.634 67.6174 100.301 64.3214 100.301 59.2291V42.024C100.301 36.9729 102.675 33.6439 107.759 33.6439C112.843 33.6439 115.258 36.9317 115.258 42.024Z" stroke="black" stroke-linecap="round" stroke-linejoin="round"/>
<path d="M130.592 48.6984V51.9944H122.469V63.86H132.44V67.2384H118.773V33.9323H132.448V37.3107H122.477V48.6984H130.592Z" stroke="black" stroke-linecap="round" stroke-linejoin="round"/>
<path d="M147.692 48.6984V51.9944H139.569V63.86H149.548V67.2384H135.865V33.9323H149.548V37.3107H139.569V48.6984H147.692Z" stroke="black" stroke-linecap="round" stroke-linejoin="round"/>
<path d="M158.616 52.8019L156.669 56.0979V67.2796H152.965V33.9323H156.669V50.0333L165.499 33.9323H169.252L160.842 49.1269L169.531 67.2549H165.737L158.616 52.8019Z" stroke="black" stroke-linecap="round" stroke-linejoin="round"/>
<path d="M202.368 48.616H199.37V45.081H202.557C205.547 45.081 207.354 43.8862 207.354 41.1753C207.354 38.4643 205.547 37.2695 202.557 37.2695H184.989C181.991 37.2695 180.192 38.5055 180.192 41.1753C180.192 43.845 181.991 45.081 184.989 45.081H189.309V48.616H185.202C180.168 48.616 176.841 46.2346 176.841 41.0846C176.841 35.9346 180.168 33.611 185.202 33.611H202.393C207.42 33.611 210.746 35.9923 210.746 41.0846C210.746 46.177 207.395 48.616 202.368 48.616Z" stroke="black" stroke-linecap="round" stroke-linejoin="round"/>
<path d="M202.368 51.6978C207.444 51.6978 210.721 54.2274 210.721 59.328C210.721 64.4286 207.436 66.9912 202.368 66.9912H185.178C180.143 66.9912 176.817 64.4698 176.817 59.328C176.817 54.1862 180.143 51.6978 185.178 51.6978H202.368ZM184.989 55.3728C181.942 55.3728 180.192 56.6582 180.192 59.328C180.192 61.9978 181.942 63.275 184.989 63.275H202.557C205.547 63.275 207.354 62.039 207.354 59.328C207.354 56.617 205.547 55.3728 202.557 55.3728H184.989Z" stroke="black" stroke-linecap="round" stroke-linejoin="round"/>
<path d="M177.153 73.8056V70.5096H210.393V75.2312L186.361 82.9438H210.393V86.2398H177.153V82.334L204.027 73.8056H177.153Z" stroke="black" stroke-linecap="round" stroke-linejoin="round"/>
<path d="M210.393 92.8154L181.515 98.2455L210.434 103.626V107.062L177.194 100.816V95.3368L210.434 89.0497L210.393 92.8154Z" stroke="black" stroke-linecap="round" stroke-linejoin="round"/>
<path d="M195.666 121.779H192.381V113.63H180.554V123.6H177.186V109.913H210.426V123.6H207.05V113.63H195.666V121.779Z" stroke="black" stroke-linecap="round" stroke-linejoin="round"/>
<path d="M177.153 130.357V127.061H210.393V131.774L186.361 139.495H210.393V142.791H177.153V138.935L204.027 130.406L177.153 130.357Z" stroke="black" stroke-linecap="round" stroke-linejoin="round"/>
<path d="M177.153 151.361H207.017V145.214H210.393V161.174H207.017V155.027H177.153V151.361Z" stroke="black" stroke-linecap="round" stroke-linejoin="round"/>
<path d="M210.393 167.42H177.153V163.704H210.393V167.42Z" stroke="black" stroke-linecap="round" stroke-linejoin="round"/>
<path d="M202.368 170.939C207.444 170.939 210.721 173.468 210.721 178.561C210.721 183.653 207.436 186.232 202.368 186.232H185.178C180.143 186.232 176.817 183.711 176.817 178.561C176.817 173.411 180.143 170.939 185.178 170.939H202.368ZM184.989 174.606C181.942 174.606 180.192 175.899 180.192 178.561C180.192 181.222 181.942 182.516 184.989 182.516H202.557C205.547 182.516 207.354 181.28 207.354 178.561C207.354 175.842 205.547 174.606 202.557 174.606H184.989Z" stroke="black" stroke-linecap="round" stroke-linejoin="round"/>
<path d="M177.153 193.047V189.709H210.393V194.464L186.361 202.177H210.393V205.473H177.153V201.616L204.027 193.088L177.153 193.047Z" stroke="black" stroke-linecap="round" stroke-linejoin="round"/>
<path d="M103.611 75.5608V132.153L166.944 75.5608H103.611Z" stroke="black" stroke-linecap="round" stroke-linejoin="round"/>
<path d="M166.944 91.637L127.849 129.821L166.944 119.637V91.637Z" stroke="black" stroke-linecap="round" stroke-linejoin="round"/>
<path d="M166.944 151.163L108.03 134.122L166.944 185.004V151.163Z" stroke="black" stroke-linecap="round" stroke-linejoin="round"/>
<path d="M104.145 155.077V225.998L151.807 188.391L104.145 155.077Z" stroke="black" stroke-linecap="round" stroke-linejoin="round"/>
</g>
<path d="M494.032 237.971C494.032 237.971 497.038 263.762 493.49 279.682C489.942 295.602 488.012 312.057 488.012 312.057C488.012 312.057 490.755 319.193 487.741 329.361C484.726 339.529 480.907 359.544 480.907 359.544C481.573 361.179 482.398 362.744 483.371 364.216C484.472 365.584 492.126 364.488 493.498 368.056C494.297 370.451 494.391 373.025 493.769 375.472H466.419C465.697 372.88 465.327 370.203 465.318 367.512C465.318 363.12 468.332 356.8 468.332 354.065C468.332 351.329 466.69 325.225 466.69 315.65C466.69 306.075 462.583 272.571 462.583 272.571L458.214 272.291L445.072 302.482C445.072 302.482 426.182 358.185 424.835 361.472C423.488 364.76 422.642 373.552 419.907 374.376C417.172 375.2 410.872 372.176 410.872 372.176L409.229 369.704C407.871 369.959 406.5 370.141 405.123 370.248C404.03 370.248 393.09 365.304 390.626 363.656C388.162 362.008 390.626 359.536 391.998 358.168C393.369 356.8 396.367 355.968 399.653 357.344C402.938 358.72 413.878 358.992 413.878 358.992C413.878 358.992 416.703 327.565 416.703 325.093C416.703 322.621 421.533 301.09 423.447 297.794C425.36 294.498 425.089 252.243 438.493 233.588L494.032 237.971Z" fill="#386DF4" stroke="#263238" stroke-linecap="round" stroke-linejoin="round"/>
<path d="M494.032 237.971L482.821 237.081V271.038L463.971 282.632L464.267 287.354L482.821 281.149V302.186L465.786 301.98C466.246 306.998 466.608 311.546 466.665 314.537H488.693C488.538 313.698 488.321 312.872 488.045 312.065C488.045 312.065 489.966 295.585 493.523 279.69C497.079 263.795 494.032 237.971 494.032 237.971Z" fill="#263238" stroke="#263238" stroke-linecap="round" stroke-linejoin="round"/>
<path d="M448.785 234.387L438.51 233.563C425.106 252.218 425.369 294.481 423.463 297.769C422.822 299.251 422.353 300.802 422.067 302.392L442.189 310.936L445.072 302.441L446.23 299.779L430.116 293.509L436.982 271.755L453.08 284.115L454.846 279.995L439.775 262.955L448.785 234.387Z" fill="#263238" stroke="#263238" stroke-linecap="round" stroke-linejoin="round"/>
<path d="M495.395 227.539L494.574 239.611C494.574 239.611 485.104 244.662 463.766 241.646C442.428 238.63 438.502 233.579 438.502 233.579L442.058 220.132C442.058 220.132 464.76 229.731 495.395 227.539Z" fill="#263238" stroke="#263238" stroke-linecap="round" stroke-linejoin="round"/>
<path d="M460.152 234.387C459.938 236.373 463.207 238.342 467.454 238.795C471.7 239.248 475.297 237.971 475.511 236.018C475.725 234.065 472.456 232.055 468.209 231.602C463.963 231.149 460.357 232.368 460.152 234.387Z" fill="white" stroke="#263238" stroke-linecap="round" stroke-linejoin="round"/>
<path d="M404.868 149.334C406.511 151.525 415.808 155.645 415.808 155.645C415.808 155.645 421.007 203.94 425.377 206.412C429.746 208.884 442.337 198.452 442.337 198.452C442.337 198.452 440.974 215.196 441.516 219.052C442.058 222.909 441.787 224.82 447.799 226.468C453.811 228.116 477.071 231.956 484.759 231.412C492.447 230.868 493.235 230.86 495.436 227.572C497.638 224.285 496.808 203.421 496.808 203.421C496.808 203.421 510.212 218.789 514.056 220.725C517.9 222.661 521.719 218.805 525.555 213.045C529.39 207.285 533.218 181.733 533.218 181.733C533.218 181.733 539.501 181.181 543.599 177.885C547.698 174.589 549.899 168.821 549.899 166.349C549.899 163.877 543.057 169.645 542.236 169.645C541.415 169.645 536.487 172.389 536.487 172.389C536.487 172.389 536.758 171.301 537.029 170.469C537.3 169.637 537.85 169.101 539.493 167.725C541.135 166.349 540.314 164.166 538.943 164.429C536.052 165.096 533.281 166.208 530.729 167.725C526.894 169.917 526.351 176.789 526.351 176.789L514.311 198.213L508.561 183.381C508.561 183.381 508.561 183.01 508.561 182.327C508.269 178.684 507.549 175.088 506.418 171.615C504.923 166.934 495.412 164.199 489.515 162.888L487.872 162.551C485.999 162.18 484.776 162.007 484.776 162.007L485.318 152.679L471.355 149.655L468.349 158.167H466.706C466.075 157.797 465.423 157.467 464.751 157.178C464.374 157.005 463.93 156.824 463.47 156.642C460.234 155.423 454.994 154.17 449.746 156.247C441.27 159.543 440.448 172.158 440.448 172.158L440.111 172.595L433.064 181.494L423.767 157.063C423.767 157.063 424.859 152.119 425.41 149.647C425.96 147.175 423.504 144.703 421.582 143.343C419.66 141.983 417.476 141.143 416.391 139.495C415.307 137.847 412.005 138.671 412.556 140.319C413.106 141.967 415.611 144.233 415.841 144.439C415.513 144.299 408.186 139.923 409.566 140.616C410.658 141.159 406.552 138.968 405.739 137.872C404.926 136.776 403.817 136.496 402.182 137.872C400.548 139.248 403.225 147.142 404.868 149.334Z" fill="#386DF4" stroke="#263238" stroke-linecap="round" stroke-linejoin="round"/>
<path d="M489.827 189.067L480.874 195.09L487.765 203.413L477.186 201.328L476.201 212.089L470.189 203.116L461.901 210.021L463.979 199.416L453.253 198.419L462.197 192.396L455.306 184.082L465.885 186.166L466.879 175.397L472.883 184.37L481.17 177.465L479.092 188.07L489.827 189.067Z" fill="#263238" stroke="#263238" stroke-linecap="round" stroke-linejoin="round"/>
<path d="M484.225 171.038C484.225 171.038 487.19 183.34 487.19 191.827" stroke="#263238" stroke-linecap="round" stroke-linejoin="round"/>
<path d="M485.408 224.952C484.731 226.543 483.749 227.985 482.517 229.196" stroke="#263238" stroke-linecap="round" stroke-linejoin="round"/>
<path d="M488.455 213.457C488.077 216.468 487.409 219.434 486.459 222.315" stroke="#263238" stroke-linecap="round" stroke-linejoin="round"/>
<path d="M456.242 183.983C455.939 185.145 455.676 186.348 455.47 187.584" stroke="#263238" stroke-linecap="round" stroke-linejoin="round"/>
<path d="M465.622 165.945C461.977 170.313 459.144 175.304 457.261 180.678" stroke="#263238" stroke-linecap="round" stroke-linejoin="round"/>
<path d="M453.376 208.373C452.22 213.83 452.965 219.519 455.487 224.491" stroke="#263238" stroke-linecap="round" stroke-linejoin="round"/>
<path d="M466.534 264.875L463.93 267.759" stroke="#263238" stroke-linecap="round" stroke-linejoin="round"/>
<path d="M479.577 250.372L470.148 260.854" stroke="#263238" stroke-linecap="round" stroke-linejoin="round"/>
<path d="M449.549 243.583L453.778 258.003" stroke="#263238" stroke-linecap="round" stroke-linejoin="round"/>
<path d="M433.04 181.445L435.668 189.66" stroke="#263238" stroke-linecap="round" stroke-linejoin="round"/>
<path d="M514.27 198.18L509.284 204.517" stroke="#263238" stroke-linecap="round" stroke-linejoin="round"/>
<path d="M489.441 162.839C497.293 173.551 497.046 194.884 497.046 194.884L508.487 182.31C508.364 180.505 509.399 177.069 508.011 172.043C505.596 163.317 495.338 164.124 489.441 162.839Z" fill="#263238" stroke="#263238" stroke-linecap="round" stroke-linejoin="round"/>
<path d="M466.682 158.117C466.051 157.748 465.398 157.418 464.727 157.129C465.335 161.191 467.487 170.09 474.583 171.565C482.147 173.131 486.459 165.426 487.798 162.501C485.925 162.13 484.702 161.957 484.702 161.957L485.244 152.63L471.281 149.605L468.275 158.117H466.682Z" fill="#263238" stroke="#263238" stroke-linecap="round" stroke-linejoin="round"/>
<path d="M440.087 172.546L444.259 183.909L463.446 156.56C460.21 155.34 454.969 154.088 449.721 156.164C441.245 159.46 440.424 172.076 440.424 172.076L440.087 172.546Z" fill="#263238" stroke="#263238" stroke-linecap="round" stroke-linejoin="round"/>
<path d="M486.377 118.055C486.377 118.055 496.767 120.246 496.496 129.854C496.225 139.462 490.747 150.454 487.461 153.997C484.176 157.541 478.164 157.293 473.786 154.821C469.408 152.349 466.394 145.222 467.766 137.806C469.137 130.39 468.037 123.262 473.786 119.422C479.535 115.582 486.377 118.055 486.377 118.055Z" fill="white" stroke="#263238" stroke-linecap="round" stroke-linejoin="round"/>
<path d="M477.95 142.305C476.993 142.71 475.917 142.73 474.944 142.363C473.047 141.794 470.838 139.767 471.01 141.794C471.182 143.821 471.963 146.161 474.115 147.447C474.66 147.828 475.315 148.02 475.979 147.993C476.644 147.966 477.281 147.722 477.794 147.298L479.034 146.631C479.034 146.631 478.295 148.74 481.999 148.773C485.704 148.806 487.256 145.477 487.157 144.398C487.059 143.318 482.73 145.428 477.95 142.305Z" fill="#263238" stroke="#263238" stroke-linecap="round" stroke-linejoin="round"/>
<path d="M473.794 119.422C479.544 115.582 486.377 118.055 486.377 118.055C486.377 118.055 496.767 120.246 496.496 129.854C496.315 136.075 493.958 142.865 491.42 147.85C488.956 144.826 482.287 137.204 478.993 138.086C475.058 139.112 471.201 140.423 467.454 142.008C467.411 140.6 467.518 139.191 467.774 137.806C469.146 130.398 468.045 123.262 473.794 119.422Z" fill="#263238" stroke="#263238" stroke-linecap="round" stroke-linejoin="round"/>
<path d="M469.417 132.87C469.417 135.293 471.684 137.262 474.476 137.262C477.269 137.262 479.535 135.293 479.535 132.87C479.535 130.447 477.269 128.478 474.476 128.478C471.684 128.478 469.417 130.447 469.417 132.87Z" fill="white" stroke="#263238" stroke-linecap="round" stroke-linejoin="round"/>
<path d="M483.396 135.045C483.125 137.451 485.162 139.66 487.938 139.989C490.714 140.319 493.186 138.597 493.457 136.191C493.728 133.785 491.691 131.576 488.915 131.247C486.139 130.917 483.667 132.664 483.396 135.045Z" fill="white" stroke="#263238" stroke-linecap="round" stroke-linejoin="round"/>
<path d="M486.656 135.581C486.525 136.553 486.96 137.419 487.634 137.517C488.307 137.616 488.964 136.899 489.096 135.927C489.227 134.955 488.8 134.081 488.127 133.982C487.453 133.884 486.796 134.6 486.656 135.581Z" fill="#263238"/>
<path d="M474.213 133.249C474.074 134.221 474.509 135.087 475.182 135.185C475.856 135.284 476.513 134.567 476.653 133.595C476.792 132.623 476.357 131.749 475.683 131.65C475.01 131.552 474.353 132.268 474.213 133.249Z" fill="#263238"/>
<path d="M478.985 138.086L478.172 142.198L481.449 143.574" stroke="#263238" stroke-linecap="round" stroke-linejoin="round"/>
<path d="M494.853 138.358C494.853 138.358 499.231 138.91 497.038 142.478C494.845 146.046 491.847 146.598 491.847 146.598L494.853 138.358Z" fill="white" stroke="#263238" stroke-linecap="round" stroke-linejoin="round"/>
<path d="M468.324 133.422C468.324 133.422 465.86 129.854 464.768 133.142C463.676 136.43 467.774 140.558 467.774 140.558L468.324 133.422Z" fill="white" stroke="#263238" stroke-linecap="round" stroke-linejoin="round"/>
<path d="M442.337 198.452L442.066 185.828L438.855 200.405L442.337 198.452Z" fill="#263238" stroke="#263238" stroke-linecap="round" stroke-linejoin="round"/>
<path d="M497.588 203.668L498.96 196.532L499.707 207.038L497.588 203.668Z" fill="#263238" stroke="#263238" stroke-linecap="round" stroke-linejoin="round"/>
<path d="M405.689 137.814C406.511 138.902 410.617 141.11 409.517 140.558C408.137 139.866 415.463 144.241 415.792 144.381C415.578 144.192 413.049 141.86 412.506 140.261C411.964 138.663 415.241 137.789 416.342 139.437C417.443 141.085 419.627 141.909 421.533 143.285C423.438 144.661 425.911 147.125 425.36 149.589C424.81 152.053 423.718 157.005 423.718 157.005L430.535 174.927C428.588 176.27 424.941 178 418.699 178.569C416.974 166.736 415.784 155.637 415.784 155.637C415.784 155.637 406.478 151.517 404.843 149.325C403.209 147.133 400.466 139.174 402.108 137.789C403.751 136.405 404.868 136.71 405.689 137.814Z" fill="#263238" stroke="#263238" stroke-linecap="round" stroke-linejoin="round"/>
<path d="M516.011 195.09L526.31 176.781C526.31 176.781 526.852 169.909 530.688 167.717C533.24 166.2 536.011 165.088 538.901 164.421C540.273 164.157 541.094 166.349 539.452 167.717C537.809 169.085 537.267 169.637 536.988 170.461C536.708 171.285 536.446 172.381 536.446 172.381C536.446 172.381 541.374 169.637 542.195 169.637C543.016 169.637 549.858 163.869 549.858 166.341C549.858 168.813 547.665 174.581 543.558 177.877C539.452 181.173 533.177 181.725 533.177 181.725C533.177 181.725 531.279 194.349 528.815 203.841C524.651 203.981 519.083 202.58 516.011 195.09Z" fill="#263238" stroke="#263238" stroke-linecap="round" stroke-linejoin="round"/>
<path d="M465.31 367.504C465.31 363.112 468.324 356.792 468.324 354.056C468.324 352.112 467.503 338.4 467.018 327.169H488.307C488.143 327.886 487.962 328.611 487.741 329.361C484.735 339.513 480.907 359.544 480.907 359.544C481.573 361.179 482.398 362.744 483.371 364.216C484.472 365.584 492.126 364.488 493.498 368.056C494.297 370.451 494.391 373.025 493.769 375.472H466.419C465.694 372.878 465.321 370.198 465.31 367.504Z" fill="#263238" stroke="#263238" stroke-linecap="round" stroke-linejoin="round"/>
<path d="M392.014 358.16C393.378 356.784 396.384 355.96 399.669 357.336C402.954 358.712 413.894 358.984 413.894 358.984C413.894 358.984 416.72 327.557 416.72 325.085C416.72 324.302 417.369 322.456 417.878 318.74L436.645 327.26C431.422 342.586 425.574 359.676 424.835 361.448C423.463 364.744 422.642 373.527 419.907 374.351C417.172 375.175 410.872 372.151 410.872 372.151L409.229 369.679C407.871 369.935 406.5 370.116 405.123 370.223C404.03 370.223 393.09 365.279 390.626 363.631C388.162 361.983 390.643 359.528 392.014 358.16Z" fill="#263238" stroke="#263238" stroke-linecap="round" stroke-linejoin="round"/>
<path d="M375.571 226.155C375.571 226.155 382.142 256.767 381.748 277.301C381.353 297.835 379.045 309.824 379.045 309.824H357.034C357.034 309.824 352.787 299.755 355.103 280.374C357.42 260.994 375.571 226.155 375.571 226.155Z" fill="#949494" stroke="#263238" stroke-linecap="round" stroke-linejoin="round"/>
<path d="M333.387 206.189C333.387 206.189 325.93 228.882 325.675 245.898C325.42 262.914 330.817 283.802 332.615 287.675C334.414 291.548 333.125 301.345 335.695 310.631C338.266 319.918 347.523 340.543 348.837 343.896C350.151 347.25 350.898 353.957 350.898 355.243C350.898 356.528 350.635 361.431 350.635 365.048C350.635 368.666 346.266 367.628 345.757 368.913C345.247 370.198 344.985 374.327 346.011 375.101C347.038 375.876 362.438 375.101 362.438 375.101L363.21 366.037L364.237 375.101H366.553C366.553 375.101 366.807 366.589 367.062 362.206C367.317 357.822 365.526 353.694 364.491 352.927C363.675 352.182 362.982 351.312 362.438 350.348L360.385 336.423L354.726 297.991C354.726 297.991 365.781 265.756 368.606 251.32C371.432 236.883 375.292 225.01 375.292 219.34C375.292 213.671 369.896 201.287 369.896 201.287L334.414 200.232L333.387 206.189Z" fill="#263238" stroke="#263238" stroke-linecap="round" stroke-linejoin="round"/>
<path d="M373.23 212.378C373.23 212.378 383.768 235.845 377.6 256.47C373.996 268.698 368.822 280.404 362.208 291.292C362.208 291.292 368.894 303.15 366.832 316.836C364.771 330.523 361.953 346.5 361.953 346.5L362.463 350.373C362.463 350.373 364.007 352.688 364.516 357.847C365.025 363.005 364.261 375.151 364.261 375.151H361.181V367.158L358.348 375.398H341.921C341.921 375.398 341.666 371.533 342.184 370.24C342.701 368.946 346.036 366.894 347.835 365.09C349.633 363.285 349.896 357.089 350.66 354.509C351.424 351.93 352.467 348.84 352.467 348.84C352.467 348.84 350.151 332.846 348.089 325.373C346.028 317.899 342.439 294.679 342.439 293.649C342.439 292.619 342.439 285.137 342.693 284.107C342.948 283.077 347.063 246.458 354.52 226.855" fill="white"/>
<path d="M373.23 212.378C373.23 212.378 383.768 235.845 377.6 256.47C373.996 268.698 368.822 280.404 362.208 291.292C362.208 291.292 368.894 303.15 366.832 316.836C364.771 330.523 361.953 346.5 361.953 346.5L362.463 350.373C362.463 350.373 364.007 352.688 364.516 357.847C365.025 363.005 364.261 375.151 364.261 375.151H361.181V367.158L358.348 375.398H341.921C341.921 375.398 341.666 371.533 342.184 370.24C342.701 368.946 346.036 366.894 347.835 365.09C349.633 363.285 349.896 357.089 350.66 354.509C351.424 351.93 352.467 348.84 352.467 348.84C352.467 348.84 350.151 332.846 348.089 325.373C346.028 317.899 342.439 294.679 342.439 293.649C342.439 292.619 342.439 285.137 342.693 284.107C342.948 283.077 347.063 246.458 354.52 226.855" stroke="#263238" stroke-linecap="round" stroke-linejoin="round"/>
<path d="M364.228 375.101C364.228 375.101 365.001 362.98 364.483 357.797C363.966 352.614 362.43 350.324 362.43 350.324L361.921 346.451C361.921 346.451 364.746 330.465 366.799 316.787C368.853 303.108 362.175 291.243 362.175 291.243C362.175 291.243 364.27 288.029 367.103 282.451C357.518 269.613 348.746 271.442 343.999 274.046C343.178 279.814 342.701 283.695 342.619 284.016C342.365 285.046 342.365 292.528 342.365 293.558C342.365 294.588 345.962 317.8 348.015 325.282C350.069 332.764 352.393 348.75 352.393 348.75C352.393 348.75 351.358 351.84 350.586 354.419C349.814 356.998 349.559 363.186 347.761 364.999C345.962 366.812 342.619 368.864 342.11 370.149C341.601 371.435 341.847 375.307 341.847 375.307H358.274L361.107 367.067V375.06L364.228 375.101Z" fill="#263238" stroke="#263238" stroke-linecap="round" stroke-linejoin="round"/>
<path d="M367.53 203.792C367.53 203.792 369.682 208.109 358.939 226.699C348.196 245.288 345.502 265.237 344.426 271.706C343.35 278.174 340.935 291.918 342.282 295.157C343.629 298.395 344.163 307.517 344.163 307.517L344.697 309.676H319.72C319.72 309.676 315.154 286.225 319.72 255.234C324.287 224.243 333.387 206.157 333.387 206.157L367.53 203.792Z" fill="#949494" stroke="#263238" stroke-linecap="round" stroke-linejoin="round"/>
<path d="M325.232 263.738L320.082 285.961L326.266 276.658L327.293 303.52L331.925 279.237L339.654 295.256L337.075 265.287" fill="white"/>
<path d="M325.232 263.738L320.082 285.961L326.266 276.658L327.293 303.52L331.925 279.237L339.654 295.256L337.075 265.287" stroke="#263238" stroke-linecap="round" stroke-linejoin="round"/>
<path d="M337.568 204.352C332.574 217.893 328.59 231.789 325.65 245.923C320.575 269.967 322.636 284.428 330.874 283.398C339.112 282.368 340.147 263.762 345.806 246.714C351.465 229.665 361.255 204.871 361.255 204.871L337.568 204.352Z" fill="white" stroke="#263238" stroke-linecap="round" stroke-linejoin="round"/>
<path d="M340.681 205.876C340.681 205.876 329.355 248.724 329.355 262.732C329.355 276.74 333.461 260.153 340.172 243.096C346.882 226.04 353.042 206.42 353.042 206.42L340.681 205.876Z" fill="white" stroke="#263238" stroke-linecap="round" stroke-linejoin="round"/>
<path d="M333.125 176.015C333.125 176.015 325.675 189.124 325.675 196.128C325.675 209.799 337.757 209.535 353.436 209.535C369.115 209.535 375.538 199.227 377.337 193.805C379.136 188.383 381.969 179.632 378.881 175.512C375.793 171.392 367.571 158.752 360.886 160.301C354.2 161.85 347.523 164.685 346.496 165.715C345.469 166.745 340.065 173.197 340.065 173.197L333.125 176.015Z" fill="#263238" stroke="#263238" stroke-linecap="round" stroke-linejoin="round"/>
<path d="M367.054 162.048C364.976 160.614 362.865 159.823 360.886 160.284C354.315 161.801 347.744 164.569 346.562 165.64C346.874 168.936 348.27 174.507 353.954 175.751C360.565 177.201 365.493 168.203 367.054 162.048Z" fill="white" stroke="#263238" stroke-linecap="round" stroke-linejoin="round"/>
<path d="M344.434 168.277C339.31 167.282 334.247 165.989 329.273 164.404C322.332 162.089 320.238 161.57 320.238 161.57C320.238 161.57 319.466 174.985 327.178 178.594C332.052 180.737 337.52 181.104 342.636 179.632L344.434 168.277Z" fill="#386DF4" stroke="#263238" stroke-linecap="round" stroke-linejoin="round"/>
<path d="M344.18 153.322C343.312 160.036 341.94 166.674 340.073 173.18C337.248 182.458 334.422 185.812 334.422 185.812L346.504 185.557C346.504 185.557 349.33 178.33 350.874 173.197C352.418 168.063 353.444 163.655 353.444 163.655C353.444 163.655 344.18 156.931 344.18 153.322Z" fill="white" stroke="#263238" stroke-linecap="round" stroke-linejoin="round"/>
<path d="M341.609 142.486C341.609 142.486 341.864 150.998 342.636 153.833C343.408 156.667 347.777 163.119 350.348 164.668C352.919 166.217 355.235 165.954 358.315 164.149C361.395 162.344 363.456 157.705 365.001 154.863C366.545 152.02 367.317 143.261 367.317 143.261C367.317 143.261 356.779 137.328 351.375 137.328C345.97 137.328 341.609 142.486 341.609 142.486Z" fill="white" stroke="#263238" stroke-linecap="round" stroke-linejoin="round"/>
<path d="M363.202 140.682C363.202 140.682 361.148 157.442 357.806 168.788C354.463 180.135 350.603 186.842 350.603 186.842L367.851 185.812L371.711 170.337L386.101 168.533C386.101 168.533 378.651 158.48 375.308 153.833C371.965 149.185 370.684 147.133 370.684 147.133L363.202 140.682Z" fill="white" stroke="#263238" stroke-linecap="round" stroke-linejoin="round"/>
<path d="M348.549 146.095C348.549 146.095 346.701 143.961 343.662 146.359" stroke="#263238" stroke-width="2" stroke-linecap="round" stroke-linejoin="round"/>
<path d="M353.436 145.848C353.436 145.848 357.543 143.788 359.35 146.367" stroke="#263238" stroke-width="2" stroke-linecap="round" stroke-linejoin="round"/>
<path d="M349.576 144.81C349.93 145.623 350.106 146.502 350.093 147.389C350.093 148.938 347.777 152.283 347.777 152.283L351.637 152.028" stroke="#263238" stroke-linecap="round" stroke-linejoin="round"/>
<path d="M349.576 155.382C349.576 155.382 356.073 157.03 358.315 152.283" stroke="#263238" stroke-linecap="round" stroke-linejoin="round"/>
<path d="M360.278 228.248C357.469 229.682 355.235 230.671 355.235 230.671L345.978 228.602C345.978 228.602 338.784 231.445 338.012 232.475C337.239 233.505 338.784 236.084 340.328 236.34L341.864 236.603C341.864 236.603 344.697 240.213 345.724 240.468C346.75 240.723 356.007 238.136 356.007 238.136C356.007 238.136 358.775 237.098 362.75 235.582L360.278 228.248Z" fill="white" stroke="#263238" stroke-linecap="round" stroke-linejoin="round"/>
<path d="M386.24 359.478L315.556 131.016C321.406 128.586 326.09 123.98 328.629 118.162C331.167 112.343 331.362 105.765 329.173 99.8055C326.984 93.8461 322.58 88.9682 316.885 86.1941C311.191 83.42 304.646 82.9652 298.625 84.9249C292.603 86.8846 287.571 91.1068 284.583 96.7064C281.596 102.306 280.885 108.848 282.6 114.962C284.314 121.076 288.321 126.287 293.78 129.502C299.24 132.718 305.728 133.689 311.885 132.211L382.52 360.607C382.595 360.85 382.716 361.076 382.878 361.271C383.04 361.467 383.239 361.629 383.463 361.747C383.688 361.866 383.933 361.939 384.185 361.963C384.438 361.986 384.692 361.96 384.934 361.884C385.178 361.813 385.406 361.695 385.604 361.535C385.801 361.376 385.966 361.178 386.087 360.954C386.209 360.731 386.285 360.485 386.311 360.232C386.337 359.978 386.313 359.722 386.24 359.478ZM285.454 108.232C285.454 104.119 286.67 100.098 288.948 96.6778C291.226 93.2576 294.464 90.5919 298.252 89.0178C302.04 87.4436 306.208 87.0318 310.229 87.8342C314.25 88.6367 317.944 90.6175 320.844 93.5261C323.743 96.4348 325.717 100.141 326.517 104.175C327.317 108.209 326.906 112.391 325.337 116.191C323.768 119.992 321.111 123.24 317.702 125.525C314.293 127.81 310.285 129.03 306.185 129.03C300.688 129.026 295.418 126.833 291.531 122.934C287.644 119.034 285.459 113.747 285.454 108.232Z" fill="white" stroke="#263238" stroke-linecap="round" stroke-linejoin="round"/>
<path d="M334.305 108.959C337.964 105.288 337.964 99.3348 334.305 95.6631C330.645 91.9915 324.711 91.9915 321.052 95.6631C317.392 99.3348 317.392 105.288 321.052 108.959C324.711 112.631 330.645 112.631 334.305 108.959Z" fill="#386DF4" stroke="#263238" stroke-linecap="round" stroke-linejoin="round"/>
<path d="M288.826 99.3587C292.084 98.5844 294.099 95.3074 293.327 92.0394C292.555 88.7714 289.289 86.7498 286.031 87.5241C282.774 88.2985 280.759 91.5755 281.531 94.8435C282.303 98.1115 285.569 100.133 288.826 99.3587Z" fill="#386DF4" stroke="#263238" stroke-linecap="round" stroke-linejoin="round"/>
<path d="M297.088 132.575C300.347 131.806 302.367 128.532 301.601 125.263C300.834 121.994 297.571 119.967 294.312 120.737C291.053 121.506 289.033 124.78 289.8 128.049C290.567 131.318 293.83 133.345 297.088 132.575Z" fill="#386DF4" stroke="#263238" stroke-linecap="round" stroke-linejoin="round"/>
<path d="M396.104 160.021C396.104 160.021 401.032 163.638 398.675 171.367C398.081 173.552 396.944 175.55 395.372 177.174C393.799 178.798 391.841 179.995 389.682 180.654L385.049 171.886C385.049 171.886 393.534 163.894 396.104 160.021Z" fill="#263238" stroke="#263238" stroke-linecap="round" stroke-linejoin="round"/>
<path d="M376.31 178.594C376.772 181.951 377.635 185.241 378.881 188.391C380.943 193.549 385.049 209.815 385.049 209.815C385.049 209.815 373.994 218.319 369.887 222.175C365.781 226.031 355.235 230.72 355.235 230.72L345.978 228.652C345.978 228.652 338.784 231.495 338.012 232.525C337.239 233.555 338.784 236.134 340.328 236.389L341.864 236.653C341.864 236.653 344.697 240.262 345.724 240.517C346.75 240.773 356.007 238.136 356.007 238.136C356.007 238.136 384.795 227.309 390.191 224.474C395.587 221.64 397.131 220.601 397.649 217.767C398.166 214.932 396.359 196.936 396.359 191.992C396.359 187.048 394.051 176.517 393.016 174.457C392.267 173.021 391.41 171.644 390.454 170.337L376.31 178.594Z" fill="white" stroke="#263238" stroke-linecap="round" stroke-linejoin="round"/>
<path d="M396.367 192.231L381.92 198.18C382.593 200.586 383.242 203.001 383.768 204.995L396.737 199.622C396.548 196.516 396.375 193.805 396.367 192.231Z" fill="#263238" stroke="#263238" stroke-linecap="round" stroke-linejoin="round"/>
<path d="M396.104 160.021C396.104 160.021 380.171 167.247 376.828 168.788C373.485 170.329 370.66 169.563 370.66 175.24C370.66 180.917 376.31 181.173 384.277 178.075C392.244 174.976 396.104 160.021 396.104 160.021Z" fill="#386DF4" stroke="#263238" stroke-linecap="round" stroke-linejoin="round"/>
<path d="M360.787 228.001C357.74 229.583 355.235 230.687 355.235 230.687L345.978 228.619C345.978 228.619 338.784 231.462 338.012 232.492C337.239 233.522 338.784 236.101 340.328 236.356L341.864 236.62C341.864 236.62 344.697 240.229 345.724 240.484C346.75 240.74 356.007 238.136 356.007 238.136C356.007 238.136 359.177 236.941 363.604 235.252L360.787 228.001Z" fill="#386DF4" stroke="#263238" stroke-linecap="round" stroke-linejoin="round"/>
<path d="M355.744 228.619L359.859 238.935L368.089 236.101L363.202 225.265L355.744 228.619Z" fill="#386DF4" stroke="#263238" stroke-linecap="round" stroke-linejoin="round"/>
<path d="M331.244 166.291C331.244 166.291 333.486 165.171 334.053 165.731C334.619 166.291 336.155 169.39 336.155 170.939C336.155 172.488 333.773 172.208 332.927 171.227C332.081 170.247 331.244 166.291 331.244 166.291Z" fill="#386DF4" stroke="#263238" stroke-linecap="round" stroke-linejoin="round"/>
<path d="M331.162 165.352C331.162 165.352 321.552 167.437 321.552 168.994C321.552 170.551 321.297 182.277 321.297 182.277C321.297 182.277 314.809 195.56 314.283 203.635C313.758 211.71 316.879 213.276 321.297 212.238C325.716 211.199 328.303 206.47 328.829 198.947C329.355 191.423 329.084 181.758 329.084 181.758C329.084 181.758 335.055 177.852 335.318 176.55C335.58 175.248 331.162 165.352 331.162 165.352Z" fill="white" stroke="#263238" stroke-linecap="round" stroke-linejoin="round"/>
<path d="M322.661 180.563L319.055 182.104L318.028 189.339C318.028 189.339 323.696 192.865 328.96 191.102C331.112 190.385 329.856 183.159 329.856 183.159L324.722 180.555L322.661 180.563Z" fill="#386DF4" stroke="#263238" stroke-linecap="round" stroke-linejoin="round"/>
<path d="M321.552 168.994C321.552 170.56 321.297 182.277 321.297 182.277C321.297 182.277 321.158 182.557 320.936 183.043C321.971 184.84 324.221 186.24 329.149 184.782C329.149 182.936 329.1 181.758 329.1 181.758C329.1 181.758 335.071 177.852 335.334 176.55C335.597 175.248 331.178 165.352 331.178 165.352C331.178 165.352 321.552 167.437 321.552 168.994Z" fill="#386DF4" stroke="#263238" stroke-linecap="round" stroke-linejoin="round"/>
<path d="M353.436 142.461C353.436 142.461 355.966 139.314 360.368 143.879" stroke="#263238" stroke-linecap="round" stroke-linejoin="round"/>
<path d="M348.82 142.461C348.82 142.461 344.771 141.481 343.071 144.579" stroke="#263238" stroke-linecap="round" stroke-linejoin="round"/>
<path d="M340.328 138.102C340.328 138.102 341.354 136.817 338.266 131.14C335.178 125.462 336.722 114.379 340.582 116.695C344.443 119.01 344.434 124.696 344.434 124.696C344.434 124.696 342.126 109.732 353.691 105.093C365.255 100.454 360.631 120.568 360.631 120.568C360.631 120.568 372.195 112.328 376.565 115.409C380.934 118.491 369.37 132.17 369.37 132.17C369.37 132.17 383.768 129.59 382.224 135.523C380.68 141.456 372.458 145.065 372.458 145.065C372.458 145.065 363.424 138.877 355.489 136.298C347.555 133.719 340.328 138.102 340.328 138.102Z" fill="#386DF4" stroke="#263238" stroke-linecap="round" stroke-linejoin="round"/>
<path d="M351.613 118.763C351.961 117.7 352.412 116.673 352.96 115.698" stroke="#263238" stroke-linecap="round" stroke-linejoin="round"/>
<path d="M341.921 128.437L347.128 135.334L350.044 131.782C349.882 128.173 350.191 124.558 350.964 121.029" stroke="#263238" stroke-linecap="round" stroke-linejoin="round"/>
<path d="M364.688 129.203L356.5 135.54L366.701 142.222L373.781 138.465" stroke="#263238" stroke-linecap="round" stroke-linejoin="round"/>
<path d="M366.487 127.811L365.888 128.28" stroke="#263238" stroke-linecap="round" stroke-linejoin="round"/>
<path d="M341.092 143.516C344.575 140.734 348.968 139.356 353.412 139.652C360.861 140.162 371.662 147.644 371.662 147.644L372.434 145.065C372.434 145.065 369.345 142.742 366.003 139.907C362.66 137.072 361.124 136.817 361.124 136.817C361.124 136.817 351.867 125.981 348.525 128.305C345.182 130.629 340.311 138.102 340.311 138.102L341.092 143.516Z" fill="#263238" stroke="#263238" stroke-linecap="round" stroke-linejoin="round"/>
<path d="M221.366 339.282L221.949 360.187C221.949 360.187 214.13 368.023 212.093 368.608C210.056 369.193 204.569 372.382 206.015 374.121C207.461 375.859 235.238 374.121 235.238 374.121H239.295C239.295 374.121 241.316 368.023 240.454 364.834C239.591 361.645 236.396 357.286 236.684 353.224C236.971 349.162 238.712 338.12 238.712 338.12L221.366 339.282Z" fill="#263238" stroke="#263238" stroke-linecap="round" stroke-linejoin="round"/>
<path d="M205.547 227.07L195.888 233.349C195.888 233.349 190.96 228.899 188.323 229.426C185.687 229.954 183.1 234.922 183.88 235.45C184.66 235.977 182.057 240.163 184.143 243.039C186.229 245.915 187.018 246.969 190.927 245.923C194.837 244.876 201.604 241.465 201.604 241.465L207.608 239.636C207.608 239.636 208.413 227.589 205.547 227.07Z" fill="#949494" stroke="#263238" stroke-linecap="round" stroke-linejoin="round"/>
<path d="M195.625 243.822C195.625 243.822 192.833 247.472 188.652 247.208C184.471 246.945 183.363 244.085 181.014 242.52C178.665 240.954 180.488 235.969 181.014 234.403C181.539 232.838 185.942 234.922 185.942 234.922C185.942 234.922 194.812 237.543 195.329 238.853C195.847 240.163 194.508 241.729 193.243 242.52" fill="#949494"/>
<path d="M195.625 243.822C195.625 243.822 192.833 247.472 188.652 247.208C184.471 246.945 183.363 244.085 181.014 242.52C178.665 240.954 180.488 235.969 181.014 234.403C181.539 232.838 185.942 234.922 185.942 234.922C185.942 234.922 194.812 237.543 195.329 238.853C195.847 240.163 194.508 241.729 193.243 242.52" stroke="#263238" stroke-linecap="round" stroke-linejoin="round"/>
<path d="M185.712 230.992C185.712 230.992 181.794 233.349 182.582 235.936C183.371 238.523 192.233 238.82 192.496 237.246C192.759 235.672 189.104 234.37 189.104 234.37" fill="#949494"/>
<path d="M185.712 230.992C185.712 230.992 181.794 233.349 182.582 235.936C183.371 238.523 192.233 238.82 192.496 237.246C192.759 235.672 189.104 234.37 189.104 234.37" stroke="#263238" stroke-linecap="round" stroke-linejoin="round"/>
<path d="M192.496 237.312C192.496 237.312 195.888 235.738 198.763 237.312Z" fill="#949494"/>
<path d="M192.496 237.312C192.496 237.312 195.888 235.738 198.763 237.312" stroke="#263238" stroke-linecap="round" stroke-linejoin="round"/>
<path d="M206.689 239.306C206.689 239.306 204.66 265.864 206.286 277.284C207.912 288.705 215.189 297.258 215.189 297.258C215.189 297.258 214.154 309.025 215.378 315.139C216.602 321.253 218.039 328.99 222.91 329.806C227.78 330.622 241.201 330.63 242.417 328.158C243.632 325.686 239.575 297.991 239.575 296.36C239.575 294.728 237.111 242.553 237.111 242.553L206.689 239.306Z" fill="#386DF4" stroke="#263238" stroke-linecap="round" stroke-linejoin="round"/>
<path d="M223.353 245.832C223.353 245.832 222.828 264.974 227.821 279.666C231.986 291.919 234.269 296.5 234.269 296.5C234.269 296.5 234.983 310.969 235.698 314.562C236.84 320.33 241.234 330.218 241.234 330.218H259.927C259.927 330.218 264.395 315.543 262.391 306.981C260.387 298.42 257.521 290.262 257.521 288.631C257.521 286.999 264.428 248.683 259.55 238.49C254.671 228.297 227.419 238.49 223.353 245.832Z" fill="#386DF4" stroke="#263238" stroke-linecap="round" stroke-linejoin="round"/>
<path d="M241.045 327.952C241.045 327.952 228.027 324.178 217.029 327.952L219.633 342.471H240.166L241.045 327.952Z" fill="#949494" stroke="#263238" stroke-linecap="round" stroke-linejoin="round"/>
<path d="M240.757 336.67C240.757 336.67 242.778 356.124 242.778 358.16C242.778 360.195 235.254 365.708 233.809 367.735C232.363 369.762 228.314 372.094 229.472 374.417C230.63 376.741 258.983 374.417 258.983 374.417C259.345 371.528 259.54 368.62 259.566 365.708C259.566 361.349 258.983 354.996 258.983 354.996L259.278 340.164C259.278 340.164 248.281 333.769 240.757 336.67Z" fill="#263238" stroke="#263238" stroke-linecap="round" stroke-linejoin="round"/>
<path d="M237.283 326.798L239.016 342.454H263.04V325.933C263.04 325.933 247.123 322.736 237.283 326.798Z" fill="#949494" stroke="#263238" stroke-linecap="round" stroke-linejoin="round"/>
<path d="M224.134 110.416C224.134 110.416 214.352 110.96 212.175 121.046C209.998 131.131 213.53 149.408 215.46 150.495C217.39 151.583 224.158 149.671 224.158 149.671C224.158 149.671 222.803 154.615 219.542 157.582C216.282 160.548 204.315 165.756 201.325 179.393C198.336 193.03 197.219 209.939 198.607 214.825C199.995 219.711 204.865 218.945 204.865 218.945L205.136 224.944C205.136 224.944 202.147 233.942 203.494 238.573C204.841 243.204 213.005 252.482 220.076 255.209C227.148 257.937 227.181 250.554 237.456 246.145C245.037 242.849 254.318 241.572 258.129 242.124C261.94 242.676 263.566 235.301 264.108 230.399C264.65 225.496 261.118 221.944 261.118 221.944L259.196 215.064L270.884 212.889C270.884 212.889 274.169 189.981 274.169 177.16C274.169 164.339 268.19 159.436 261.669 157.26C255.147 155.085 250.523 153.964 250.523 153.964C250.523 153.964 243.189 148.238 242.638 146.878C242.088 145.518 242.638 134.337 243.189 129.154C243.739 123.971 244.831 114.701 239.378 111.429C233.924 108.158 224.134 110.416 224.134 110.416Z" fill="#386DF4" stroke="#263238" stroke-linecap="round" stroke-linejoin="round"/>
<path d="M213.596 131.395C213.596 131.395 211.633 134.345 212.619 136.117C213.605 138.294 214.456 140.532 215.165 142.816" stroke="#263238" stroke-linecap="round" stroke-linejoin="round"/>
<path d="M258.112 242.083C261.915 242.627 263.549 235.26 264.092 230.357C264.311 227.66 263.52 224.978 261.874 222.834L205.029 223.222L205.112 224.87C205.112 224.87 202.122 233.868 203.469 238.498C204.816 243.129 212.98 252.408 220.052 255.135C227.123 257.862 227.156 250.479 237.431 246.071C245.02 242.841 254.301 241.531 258.112 242.083Z" fill="#386DF4" stroke="#263238" stroke-linecap="round" stroke-linejoin="round"/>
<path d="M253.825 181.42L243.262 169.999L250.17 183.455L253.825 181.42Z" fill="#263238"/>
<path d="M224.134 149.638L231.402 148.056L234.877 147.356L239.197 143.096C239.197 143.096 234.729 150.841 233.103 154.104C231.476 157.368 221.316 156.14 221.316 156.14L224.134 149.638Z" fill="#263238" stroke="#263238" stroke-miterlimit="10"/>
<path d="M223.863 130.546C226.716 130.546 229.029 128.595 229.029 126.187C229.029 123.78 226.716 121.828 223.863 121.828C221.009 121.828 218.696 123.78 218.696 126.187C218.696 128.595 221.009 130.546 223.863 130.546Z" fill="white" stroke="#263238" stroke-linecap="round" stroke-linejoin="round"/>
<path d="M221.349 124.284C222.074 123.51 223.048 123.017 224.1 122.891C225.151 122.766 226.213 123.017 227.099 123.6" stroke="#263238" stroke-linecap="round" stroke-linejoin="round"/>
<path d="M213.809 127.003C213.809 125.124 212.906 123.608 211.773 123.485C211.518 125.824 211.433 128.178 211.518 130.53H211.633C212.832 130.546 213.809 128.964 213.809 127.003Z" fill="white" stroke="#263238" stroke-linecap="round" stroke-linejoin="round"/>
<path d="M239.353 133.818C241.303 133.818 242.885 131.682 242.885 129.047C242.885 126.412 241.303 124.276 239.353 124.276C237.402 124.276 235.821 126.412 235.821 129.047C235.821 131.682 237.402 133.818 239.353 133.818Z" fill="white" stroke="#263238" stroke-linecap="round" stroke-linejoin="round"/>
<path d="M205.112 224.903L248.149 223.057L247.123 214.784L204.06 218.146L205.112 224.903Z" fill="#263238" stroke="#263238" stroke-linecap="round" stroke-linejoin="round"/>
<path d="M257.841 194.357C229.292 188.473 208.339 192.181 198.828 194.728C197.851 203.66 197.72 211.677 198.582 214.809C199.945 219.753 204.84 218.929 204.84 218.929L259.196 215.064L257.841 194.357Z" fill="white" stroke="#263238" stroke-linecap="round" stroke-linejoin="round"/>
<path d="M226.293 182.39C230.088 176.512 229.23 169.189 224.375 166.035C219.521 162.881 212.509 165.089 208.714 170.968C204.919 176.846 205.778 184.169 210.632 187.323C215.487 190.477 222.498 188.269 226.293 182.39Z" fill="#263238" stroke="#263238" stroke-linecap="round" stroke-linejoin="round"/>
<path d="M224.129 180.984C226.989 176.553 226.342 171.034 222.683 168.656C219.024 166.279 213.739 167.944 210.879 172.374C208.018 176.805 208.666 182.324 212.325 184.702C215.983 187.079 221.268 185.415 224.129 180.984Z" fill="white" stroke="#263238" stroke-linecap="round" stroke-linejoin="round"/>
<path d="M220.758 171.606C223.066 173.106 223.468 176.55 221.67 179.377C219.871 182.203 216.536 183.216 214.237 181.717C211.937 180.217 211.518 176.773 213.325 173.955C215.132 171.137 218.475 170.115 220.758 171.606Z" fill="#263238" stroke="#263238" stroke-linecap="round" stroke-linejoin="round"/>
<path d="M219.058 174.251C219.548 174.722 219.86 175.35 219.938 176.027C220.017 176.704 219.857 177.387 219.487 177.958C219.117 178.53 218.56 178.954 217.912 179.157C217.264 179.36 216.565 179.33 215.937 179.072C214.836 178.363 214.647 176.699 215.501 175.372C216.356 174.045 217.957 173.534 219.058 174.251Z" fill="#386DF4" stroke="#263238" stroke-linecap="round" stroke-linejoin="round"/>
<path d="M281.021 258.564C302.478 249.962 312.922 225.538 304.349 204.011C295.775 182.484 271.43 172.006 249.973 180.607C228.515 189.209 218.071 213.633 226.644 235.16C235.218 256.687 259.563 267.165 281.021 258.564Z" fill="#263238" stroke="#263238" stroke-linecap="round" stroke-linejoin="round"/>
<path d="M297.477 224.836C300.38 207.107 288.408 190.373 270.737 187.46C253.065 184.548 236.386 196.559 233.482 214.288C230.579 232.016 242.551 248.75 260.223 251.663C277.894 254.575 294.574 242.565 297.477 224.836Z" fill="white" stroke="#263238" stroke-linecap="round" stroke-linejoin="round"/>
<path d="M286.274 224.426C288.947 212.911 281.809 201.402 270.331 198.72C258.854 196.039 247.382 203.199 244.709 214.714C242.036 226.229 249.174 237.738 260.652 240.42C272.129 243.101 283.601 235.941 286.274 224.426Z" fill="#263238" stroke="#263238" stroke-linecap="round" stroke-linejoin="round"/>
<path d="M265.496 230.877C271.715 230.877 276.756 225.819 276.756 219.58C276.756 213.34 271.715 208.282 265.496 208.282C259.277 208.282 254.236 213.34 254.236 219.58C254.236 225.819 259.277 230.877 265.496 230.877Z" fill="#386DF4" stroke="#263238" stroke-linecap="round" stroke-linejoin="round"/>
<path d="M225.867 126.426C225.867 127.308 225.431 128.017 224.897 128.017C224.364 128.017 223.92 127.308 223.92 126.426C223.92 125.545 224.355 124.844 224.897 124.844C225.44 124.844 225.867 125.553 225.867 126.426Z" fill="#263238"/>
<path d="M213.933 127.127C213.933 127.819 213.588 128.387 213.161 128.387C212.734 128.387 212.389 127.819 212.389 127.127C212.389 126.435 212.734 125.866 213.161 125.866C213.588 125.866 213.933 126.426 213.933 127.127Z" fill="#263238"/>
<path d="M98.9625 181.165C98.9625 181.165 102.88 176.707 108.63 178.281C114.379 179.854 115.948 184.049 115.948 184.049L128.489 187.715C132.022 188.399 135.61 188.752 139.208 188.77C143.417 188.87 147.611 189.308 151.75 190.08L149.401 198.469L106.281 200.57L96.3424 183.002L98.9625 181.165Z" fill="#949494" stroke="#263238" stroke-linecap="round" stroke-linejoin="round"/>
<path d="M102.092 241.201C102.092 241.201 105.229 242.025 105.229 245.923C105.245 248.467 105.421 251.007 105.755 253.528C105.755 253.528 120.654 267.685 129.278 282.368C137.902 297.052 136.596 303.347 136.333 306.264C136.07 309.181 128.489 350.043 128.489 353.455C128.428 355.119 128.605 356.784 129.015 358.399C129.015 358.399 130.847 363.639 134.764 365.477C138.682 367.314 140.777 367.051 141.039 369.935C141.206 371.416 141.206 372.911 141.039 374.393H113.073C113.073 374.393 112.547 366.523 112.547 362.857C112.547 359.19 116.991 352.672 116.991 352.672C116.991 352.672 115.422 323.008 115.422 318.064C115.422 313.12 117.779 302.861 117.779 302.861L86.4125 277.169C86.4125 277.169 95.0365 307.055 93.4677 315.971C91.899 324.887 75.3984 353.199 75.3984 353.199L74.3553 361.851C74.3553 361.851 79.0533 367.1 80.926 368.443C82.7986 369.786 83.8006 371.591 82.7576 373.157C82.2322 373.891 81.794 374.685 81.4516 375.521H66.027C66.027 375.521 58.1915 370.536 57.6658 369.753C57.1402 368.971 57.6658 362.675 59.4974 359.528C61.329 356.38 65.5096 350.876 65.5096 350.876C65.5096 350.876 68.3842 324.129 70.4376 319.934C72.4909 315.74 74.881 311.81 74.881 311.81C74.881 311.81 61.6 295.742 56.8856 280.794C52.1711 265.847 52.4421 255.885 57.403 249.07C62.3638 242.256 64.4665 239.108 64.4665 239.108L89.5253 240.155L102.092 241.201Z" fill="#386DF4" stroke="#263238" stroke-linecap="round" stroke-linejoin="round"/>
<path d="M98.4779 263.037C95.7428 266.77 91.6033 271.277 86.9792 272.348" stroke="#263238" stroke-linecap="round" stroke-linejoin="round"/>
<path d="M101.845 257.698C101.845 257.698 101.221 258.884 100.12 260.59" stroke="#263238" stroke-linecap="round" stroke-linejoin="round"/>
<path d="M71.1767 254.278C69.9215 253.771 68.6082 253.422 67.2672 253.24" stroke="#263238" stroke-linecap="round" stroke-linejoin="round"/>
<path d="M86.9545 275.537C86.9545 275.537 83.2832 261.661 73.9692 255.761" stroke="#263238" stroke-linecap="round" stroke-linejoin="round"/>
<path d="M75.8419 252.284C75.8419 252.284 72.0309 246.516 63.7765 249.417" stroke="#263238" stroke-linecap="round" stroke-linejoin="round"/>
<path d="M103.923 233.868L103.66 242.52C103.66 242.52 100.531 244.349 87.4638 244.349C79.5078 244.314 71.6568 242.525 64.4664 239.108L65.5095 232.03L103.923 233.868Z" fill="#263238" stroke="#263238" stroke-linecap="round" stroke-linejoin="round"/>
<path d="M88.6136 246.45L98.4532 245.964V237.015L88.6136 237.502V246.45Z" fill="white" stroke="#263238" stroke-linecap="round" stroke-linejoin="round"/>
<path d="M92.9503 176.179L91.9072 182.475L98.9624 181.165C103.484 184.83 106.843 189.738 108.63 195.288C111.504 204.467 112.547 211.768 108.892 215.74C105.237 219.711 105.755 218.624 105.755 218.624C105.755 218.624 106.281 233.307 104.186 235.145C102.092 236.982 84.8437 237.765 75.7023 235.664C66.5608 233.563 65.0249 232.516 65.0249 229.632C65.0249 226.748 66.3309 220.725 66.3309 220.725C66.3309 220.725 58.1914 206.074 57.403 196.112C56.6145 186.15 59.2345 180.118 64.721 177.984C70.2076 175.85 76.2197 179.558 76.2197 179.558L78.848 168.318L92.9503 176.179Z" fill="#386DF4" stroke="#263238" stroke-linecap="round" stroke-linejoin="round"/>
<path d="M92.9503 176.179L91.9072 182.475C91.9072 182.475 93.2131 195.848 91.9072 196.367C90.6013 196.887 76.2197 179.632 76.2197 179.632L78.848 168.318L92.9503 176.179Z" fill="#949494" stroke="#263238" stroke-linecap="round" stroke-linejoin="round"/>
<path d="M64.7211 177.984C66.3708 177.385 68.1398 177.193 69.879 177.424C72.8911 179.773 75.4777 182.624 77.5257 185.853C81.9691 192.668 78.347 208.101 62.1092 211.282L61.7971 211.331C59.7849 206.56 57.7808 200.792 57.403 196.079C56.6227 186.142 59.2346 180.118 64.7211 177.984Z" fill="#949494" stroke="#263238" stroke-linecap="round" stroke-linejoin="round"/>
<path d="M169.26 187.715H174.229V178.8H169.26V187.715Z" fill="#878787" stroke="#263238" stroke-linecap="round" stroke-linejoin="round"/>
<path d="M167.692 201.616H171.872V187.724H167.692V201.616Z" fill="#878787" stroke="#263238" stroke-linecap="round" stroke-linejoin="round"/>
<path d="M169.26 178.808H138.945V191.654H147.832V201.353L167.692 201.616V187.715H169.26V178.808Z" fill="#263238" stroke="#263238" stroke-linecap="round" stroke-linejoin="round"/>
<path d="M150.706 190.08H156.719C157.618 190.08 158.481 190.439 159.117 191.077C159.753 191.715 160.111 192.581 160.111 193.483C160.112 193.931 160.025 194.374 159.855 194.788C159.685 195.202 159.435 195.578 159.12 195.895C158.805 196.212 158.431 196.463 158.019 196.635C157.606 196.807 157.165 196.895 156.719 196.895H149.663L150.706 190.08Z" fill="#949494" stroke="#263238" stroke-linecap="round" stroke-linejoin="round"/>
<path d="M182.065 183.752H172.94C172.389 183.756 171.86 183.542 171.466 183.157C171.072 182.771 170.846 182.244 170.837 181.692C170.837 181.136 171.057 180.603 171.448 180.209C171.839 179.815 172.369 179.593 172.923 179.591H182.049L182.065 183.752Z" fill="#878787" stroke="#263238" stroke-linecap="round" stroke-linejoin="round"/>
<path d="M184.028 185.095H178.147C177.212 185.095 176.315 184.723 175.653 184.06C174.991 183.398 174.618 182.498 174.615 181.56C174.615 181.095 174.707 180.634 174.884 180.204C175.062 179.774 175.322 179.384 175.65 179.055C175.978 178.726 176.367 178.465 176.796 178.287C177.224 178.109 177.683 178.017 178.147 178.017H184.028C184.491 178.017 184.95 178.109 185.378 178.287C185.806 178.465 186.195 178.726 186.522 179.055C186.85 179.384 187.109 179.775 187.286 180.205C187.462 180.635 187.553 181.095 187.551 181.56C187.551 182.498 187.18 183.397 186.519 184.06C185.859 184.723 184.962 185.095 184.028 185.095Z" fill="#263238" stroke="#263238" stroke-linecap="round" stroke-linejoin="round"/>
<path d="M148.62 178.808H154.37V173.567H148.62V178.808Z" fill="#263238" stroke="#263238" stroke-linecap="round" stroke-linejoin="round"/>
<path d="M144.932 173.823H159.068V170.675H144.932V173.823Z" fill="#263238" stroke="#263238" stroke-linecap="round" stroke-linejoin="round"/>
<path d="M138.92 175.133H142.206C143.003 175.133 143.768 174.815 144.331 174.25C144.895 173.684 145.212 172.917 145.212 172.117C145.212 171.317 144.895 170.55 144.331 169.985C143.768 169.419 143.003 169.101 142.206 169.101H138.92C138.123 169.101 137.358 169.419 136.795 169.985C136.231 170.55 135.914 171.317 135.914 172.117C135.914 172.917 136.231 173.684 136.795 174.25C137.358 174.815 138.123 175.133 138.92 175.133Z" fill="#263238" stroke="#263238" stroke-linecap="round" stroke-linejoin="round"/>
<path d="M159.7 175.133H163.642C164.44 175.133 165.204 174.815 165.768 174.25C166.332 173.684 166.648 172.917 166.648 172.117C166.648 171.317 166.332 170.55 165.768 169.985C165.204 169.419 164.44 169.101 163.642 169.101H159.7C158.903 169.101 158.138 169.419 157.574 169.985C157.011 170.55 156.694 171.317 156.694 172.117C156.694 172.917 157.011 173.684 157.574 174.25C158.138 174.815 158.903 175.133 159.7 175.133Z" fill="#263238" stroke="#263238" stroke-linecap="round" stroke-linejoin="round"/>
<path d="M58.1011 186.067C58.1011 186.067 59.136 174.688 70.9714 176.855C78.774 178.289 84.5973 187.46 84.5973 187.46L96.096 192.173C100.363 191.874 104.649 191.962 108.901 192.437C116.219 193.261 130.329 194.794 130.329 194.794L129.023 205.019C129.023 205.019 111.25 207.121 98.7078 207.121C86.166 207.121 74.6592 204.5 71.0042 203.973C68.2699 203.527 65.5654 202.913 62.9059 202.135" fill="#949494"/>
<path d="M58.1011 186.067C58.1011 186.067 59.136 174.688 70.9714 176.855C78.774 178.289 84.5973 187.46 84.5973 187.46L96.096 192.173C100.363 191.874 104.649 191.962 108.901 192.437C116.219 193.261 130.329 194.794 130.329 194.794L129.023 205.019C129.023 205.019 111.25 207.121 98.7078 207.121C86.166 207.121 74.6592 204.5 71.0042 203.973C68.2699 203.527 65.5654 202.913 62.9059 202.135" stroke="#263238" stroke-linecap="round" stroke-linejoin="round"/>
<path d="M84.5973 187.435L92.5971 190.731C89.3939 191.992 80.7371 196.343 83.3653 206C78.7659 205.374 74.9713 204.649 72.573 204.228C72.3348 200.932 72.2855 195.164 74.651 192.429C76.7947 189.957 81.4352 188.309 84.5973 187.435Z" fill="#263238" stroke="#263238" stroke-linecap="round" stroke-linejoin="round"/>
<path d="M110.979 206.593C107.348 200.759 109.779 195.436 111.595 192.734C119.216 193.558 130.321 194.794 130.321 194.794L129.015 205.019C129.015 205.019 120.448 206.033 111.02 206.667L110.979 206.593Z" fill="#263238" stroke="#263238" stroke-linecap="round" stroke-linejoin="round"/>
<path d="M130.321 194.794L139.208 188.77L154.099 190.599C154.099 190.599 156.193 193.228 154.361 195.057C152.53 196.887 149.663 196.631 149.663 196.631C149.663 196.631 150.969 204.237 147.832 205.547C144.694 206.857 129.015 205.019 129.015 205.019L130.321 194.794Z" fill="#949494" stroke="#263238" stroke-linecap="round" stroke-linejoin="round"/>
<path d="M87.6938 281.759C88.0387 283.044 88.4247 284.552 88.8436 286.2C77.4928 284.173 68.2282 289.397 62.7088 293.805C61.5425 291.721 60.4255 289.545 59.4235 287.345C68.7949 278.191 82.4783 280.448 87.6938 281.759Z" fill="#263238" stroke="#263238" stroke-linecap="round" stroke-linejoin="round"/>
<path d="M54.9225 283.052C54.4209 281.645 54.4246 280.106 54.9328 278.701C55.4411 277.296 56.4222 276.113 57.7068 275.356C59.4809 274.31 61.4357 273.313 62.6348 273.189C65.2467 272.934 69.4273 275.026 70.4704 280.012C71.5135 284.997 75.9651 303.084 73.6079 304.658C71.2506 306.231 65.7723 304.394 63.6779 300.719C62.0928 297.934 57.1894 289.405 54.9225 283.052Z" fill="#263238" stroke="#263238" stroke-linecap="round" stroke-linejoin="round"/>
<path d="M121.73 271.376C123.077 273.115 124.407 274.919 125.68 276.757V276.905C124.999 276.79 109.352 274.211 104.326 291.795L99.8248 288.112C104.671 274.392 115.414 271.697 121.73 271.376Z" fill="#263238"/>
<path d="M117.779 302.82C117.779 302.82 121.171 294.951 126.403 293.641C131.635 292.33 136.333 293.121 136.851 299.672C137.368 306.223 137.902 309.371 130.28 310.426C122.658 311.48 117.254 305.704 117.254 305.704L117.779 302.82Z" fill="#263238"/>
<path d="M93.5745 311.34C93.5745 311.34 92.5889 315.007 87.2009 315.402C79.078 316.004 74.8809 311.736 74.8809 311.736L73.3122 315.139C73.3122 315.139 76.4497 322.744 81.9362 324.845C83.7087 325.6 85.6848 325.726 87.538 325.202C89.3913 324.677 91.0108 323.534 92.1289 321.961C93.2131 320.388 94.3548 316.581 93.5745 311.34Z" fill="#263238"/>
<path d="M116.629 344.811C123.2 346.335 127.701 345.322 129.771 344.564C129.015 349.154 128.506 352.54 128.506 353.422C128.445 355.087 128.622 356.751 129.031 358.366C129.031 358.366 130.863 363.606 134.781 365.444C138.699 367.282 140.793 367.018 141.056 369.902C141.222 371.383 141.222 372.878 141.056 374.36H113.073C113.073 374.36 112.547 366.49 112.547 362.824C112.547 359.157 116.991 352.672 116.991 352.672C116.991 352.672 116.818 349.376 116.629 344.811Z" fill="#263238"/>
<path d="M65.5095 350.802C65.5095 350.802 65.6902 349.112 65.9941 346.517C68.7127 351.329 73.5997 351.139 77.1478 350.167C76.0965 352.029 75.4394 353.158 75.4394 353.158L74.3963 361.81C74.3963 361.81 79.0944 367.059 80.967 368.402C82.8397 369.745 83.8417 371.55 82.7986 373.115C82.2733 373.85 81.835 374.644 81.4927 375.48H66.027C66.027 375.48 58.1914 370.495 57.6658 369.712C57.1401 368.93 57.6658 362.634 59.4974 359.486C61.3289 356.339 65.5095 350.802 65.5095 350.802Z" fill="#263238"/>
<path d="M93.7305 214.726C93.7305 214.726 88.5068 219.439 81.7144 217.346" stroke="#263238" stroke-linecap="round" stroke-linejoin="round"/>
<path d="M111.241 142.099C111.241 142.099 123.003 131.873 125.352 133.966C127.701 136.059 123.003 140.261 123.003 140.261C123.003 140.261 137.376 140.261 139.471 144.983C141.565 149.704 128.752 147.867 128.752 147.867C128.752 147.867 138.165 155.728 135.323 159.139C132.481 162.55 120.654 155.736 120.654 155.736C120.654 155.736 124.572 164.133 120.128 164.652C115.685 165.171 108.367 157.837 106.798 154.17C105.229 150.504 102.617 143.145 111.241 142.099Z" fill="#263238" stroke="#263238" stroke-linecap="round" stroke-linejoin="round"/>
<path d="M107.061 136.594C107.061 136.594 116.991 135.284 114.904 139.215C112.818 143.145 107.841 145.502 107.841 145.502C107.841 145.502 112.547 147.603 111.504 150.751C110.461 153.898 106.798 154.162 106.798 154.162C106.798 154.162 112.81 156.255 110.716 160.977C108.621 165.698 104.966 167.264 101.311 169.892C97.6565 172.521 77.4927 169.365 77.4927 169.365C77.4927 169.365 72.2691 169.365 69.6572 169.101C67.0454 168.838 67.5628 166.217 67.5628 166.217C67.5628 166.217 62.6348 169.101 60.9922 167.264C59.3495 165.426 60.7293 160.672 60.7293 160.672C60.7293 160.672 57.0744 159.625 57.329 156.478C57.4966 154.559 58.0291 152.691 58.8978 150.973C58.8978 150.973 51.5797 147.298 54.98 143.104C57.2479 140.454 60.1147 138.386 63.3412 137.072C63.3412 137.072 57.0744 133.406 59.9491 130.785C62.8237 128.165 69.3533 129.731 69.3533 129.731C69.3533 129.731 69.0905 122.916 74.2813 122.389C79.4722 121.861 84.9587 125.8 84.9587 125.8C84.9587 125.8 89.1393 119.249 94.3711 120.559C99.603 121.87 93.3198 126.327 93.3198 126.327C93.3198 126.327 105.64 120.559 109.007 124.754C112.375 128.948 105.87 133.406 105.87 133.406C105.87 133.406 113.073 130.563 107.061 136.594Z" fill="#263238" stroke="#263238" stroke-linecap="round" stroke-linejoin="round"/>
<path d="M60.023 146.82C60.023 146.82 50.0849 134.757 44.8612 135.284C39.6375 135.812 44.0809 142.362 44.0809 142.362C44.0809 142.362 33.8882 147.603 33.8882 150.223C33.8882 152.844 38.3316 154.162 38.3316 154.162C38.3316 154.162 31.7609 168.318 35.4569 170.411C39.1529 172.504 46.4299 167.272 46.4299 167.272C46.4299 167.272 47.2102 170.683 50.3477 170.156C53.4852 169.629 55.5796 157.574 55.5796 157.574C55.5796 157.574 56.4009 163.078 59.4974 160.194C62.5938 157.31 63.1523 147.603 60.023 146.82Z" fill="#263238" stroke="#263238" stroke-linecap="round" stroke-linejoin="round"/>
<path d="M103.143 162.023C103.143 162.023 98.6996 177.49 95.5621 178.281C92.4246 179.072 81.7144 171.689 79.62 170.148C77.5256 168.607 78.848 162.328 78.848 162.328L99.7509 163.374L103.143 162.023Z" fill="#949494" stroke="#263238" stroke-linecap="round" stroke-linejoin="round"/>
<path d="M103.143 146.557V162.023L96.0959 167.527L78.8479 162.328L78.0266 156.296C78.0266 156.296 80.9013 154.203 80.9013 153.412C80.9279 152.793 81.0159 152.177 81.1641 151.575C81.1641 151.575 83.2503 152.63 84.0388 149.746C84.8273 146.862 85.3447 144.497 85.3447 144.497C85.3447 144.497 90.0509 147.644 93.1884 147.644C96.3259 147.644 98.4121 144.497 98.4121 144.497C98.4121 144.497 102.355 147.867 103.143 146.557Z" fill="#386DF4" stroke="#263238" stroke-linecap="round" stroke-linejoin="round"/>
<path d="M89.0325 158.875C89.0325 160.037 89.5582 160.977 90.207 160.977C90.8559 160.977 91.3815 160.037 91.3815 158.875C91.3815 157.714 90.8559 156.782 90.207 156.782C89.5582 156.782 89.0325 157.722 89.0325 158.875Z" fill="#263238"/>
<path d="M99.8741 160.194C100.523 160.194 101.049 159.253 101.049 158.093C101.049 156.932 100.523 155.991 99.8741 155.991C99.2254 155.991 98.6996 156.932 98.6996 158.093C98.6996 159.253 99.2254 160.194 99.8741 160.194Z" fill="#263238"/>
<path d="M93.4677 155.472C92.6577 154.674 91.6496 154.107 90.5478 153.83C89.446 153.553 88.2905 153.577 87.2009 153.898" stroke="#263238" stroke-linecap="round" stroke-linejoin="round"/>
<path d="M102.88 153.635C102.88 153.635 100.786 153.107 98.9624 155.472" stroke="#263238" stroke-linecap="round" stroke-linejoin="round"/>
<path d="M96.0878 167.527L95.825 158.356" stroke="#263238" stroke-linecap="round" stroke-linejoin="round"/>
<path d="M96.096 170.675C96.096 170.675 90.3467 171.499 86.9464 167.527" stroke="#263238" stroke-linecap="round" stroke-linejoin="round"/>
<path d="M162.624 201.476C162.624 201.476 157.318 206.799 152.374 207.154C147.429 207.508 144.982 203.248 144.243 202.21C143.503 201.171 143.889 200.084 145.655 200.084C146.104 200.035 146.557 200.135 146.944 200.369C147.331 200.602 147.631 200.957 147.799 201.377C147.799 201.377 148.127 200.084 150.263 200.084C151.735 200.148 153.179 200.51 154.509 201.147L162.624 201.476Z" fill="#949494" stroke="#263238" stroke-linecap="round" stroke-linejoin="round"/>
<path d="M147.84 201.353C147.84 201.353 150.994 205.736 153.121 205.736" stroke="#263238" stroke-linecap="round" stroke-linejoin="round"/>
<path d="M154.526 201.122C155.053 202.085 155.775 202.927 156.645 203.594" stroke="#263238" stroke-linecap="round" stroke-linejoin="round"/>
<path d="M551.033 280.119C555.201 280.119 558.581 271.224 558.581 260.252C558.581 249.28 555.201 240.385 551.033 240.385C546.864 240.385 543.484 249.28 543.484 260.252C543.484 271.224 546.864 280.119 551.033 280.119Z" fill="#386DF4" stroke="#263238" stroke-miterlimit="10"/>
<path d="M574.498 248.024C572.133 255.44 567.599 260.681 564.363 259.651C561.127 258.621 560.429 251.748 562.786 244.291C565.143 236.834 569.677 231.635 572.913 232.665C576.149 233.695 576.855 240.55 574.498 248.024Z" fill="#386DF4" stroke="#263238" stroke-miterlimit="10"/>
<path d="M519.083 292.94C511.395 291.638 505.629 287.856 506.196 284.502C506.763 281.149 513.448 279.484 521.136 280.786C528.824 282.088 534.589 285.879 534.023 289.232C533.456 292.586 526.779 294.25 519.083 292.94Z" fill="#386DF4" stroke="#263238" stroke-miterlimit="10"/>
<path d="M581.603 274.573C575.18 280.959 567.64 283.728 564.667 280.761C561.693 277.795 564.552 270.206 570.966 263.812C577.381 257.418 584.97 254.657 587.91 257.632C590.851 260.606 588.025 268.187 581.603 274.573Z" fill="#386DF4" stroke="#263238" stroke-miterlimit="10"/>
<path d="M537.374 257.088C543.575 266.152 545.431 275.644 541.48 278.364C537.53 281.083 529.333 275.949 523.132 266.918C516.931 257.887 515.075 248.353 519.025 245.643C522.976 242.932 531.165 248.024 537.374 257.088Z" fill="#386DF4" stroke="#263238" stroke-miterlimit="10"/>
<path d="M551.566 279.13L552.15 339.579" stroke="#263238" stroke-miterlimit="10" stroke-linecap="round"/>
<path d="M550.86 252.869L551.566 279.13" stroke="#263238" stroke-miterlimit="10" stroke-linecap="round"/>
<path d="M550.909 248.576L550.86 250.595" stroke="#263238" stroke-miterlimit="10" stroke-linecap="round"/>
<path d="M541.472 277.037C545.804 286.011 548.338 295.751 548.93 305.704V343.089" stroke="#263238" stroke-miterlimit="10" stroke-linecap="round"/>
<path d="M528.503 257.129C533.688 263.158 538.049 269.853 541.472 277.037" stroke="#263238" stroke-miterlimit="10" stroke-linecap="round"/>
<path d="M524.421 252.803C524.421 252.803 525.243 253.52 526.491 254.888" stroke="#263238" stroke-miterlimit="10" stroke-linecap="round"/>
<path d="M565.135 279.847C559.837 287.294 555.707 295.511 552.889 304.212" stroke="#263238" stroke-miterlimit="10" stroke-linecap="round"/>
<path d="M573.816 269.827C570.62 272.891 567.714 276.245 565.135 279.847" stroke="#263238" stroke-miterlimit="10" stroke-linecap="round"/>
<path d="M583.097 262.741C580.737 264.076 578.519 265.65 576.477 267.437" stroke="#263238" stroke-miterlimit="10" stroke-linecap="round"/>
<path d="M564.815 257.78C560.634 270.964 555.016 290.501 552.396 307.443" stroke="#263238" stroke-miterlimit="10" stroke-linecap="round"/>
<path d="M567.361 249.952C566.621 252.177 565.718 254.822 564.814 257.78" stroke="#263238" stroke-miterlimit="10" stroke-linecap="round"/>
<path d="M570.005 242.371C570.005 242.371 569.274 244.39 568.1 247.859" stroke="#263238" stroke-miterlimit="10" stroke-linecap="round"/>
<path d="M533.645 287.403C538.869 289.389 546.022 294.934 548.503 302.235" stroke="#263238" stroke-miterlimit="10" stroke-linecap="round"/>
<path d="M524.011 285.434C527.308 285.6 530.561 286.264 533.661 287.403" stroke="#263238" stroke-miterlimit="10" stroke-linecap="round"/>
<path d="M517.736 285.59C518.553 285.483 519.376 285.417 520.2 285.392" stroke="#263238" stroke-miterlimit="10" stroke-linecap="round"/>
<path d="M534.171 321.995C527.107 325.291 520.208 325.488 518.779 322.398C517.35 319.308 521.908 314.158 528.971 310.862C536.035 307.566 542.934 307.369 544.355 310.45C545.776 313.532 541.259 318.69 534.171 321.995Z" fill="#386DF4" stroke="#263238" stroke-miterlimit="10"/>
<path d="M533.941 313.021C536.742 311.281 539.788 309.97 542.975 309.132C543.712 308.684 544.56 308.456 545.421 308.473C546.282 308.491 547.12 308.754 547.838 309.231C548.79 309.865 548.478 314.661 548.478 314.661V339.579" stroke="#263238" stroke-miterlimit="10" stroke-linecap="round"/>
<path d="M528.889 316.713C528.889 316.713 529.579 316.078 530.803 315.155" stroke="#263238" stroke-miterlimit="10" stroke-linecap="round"/>
<path d="M584.863 292.94C592.551 291.638 598.317 287.856 597.75 284.502C597.183 281.149 590.498 279.484 582.81 280.786C575.122 282.088 569.356 285.879 569.923 289.224C570.49 292.569 577.176 294.25 584.863 292.94Z" fill="#386DF4" stroke="#263238" stroke-miterlimit="10"/>
<path d="M570.473 287.337C569.538 287.684 568.624 288.089 567.738 288.548C564.626 290.189 562.023 292.657 560.217 295.683C558.41 298.71 557.469 302.177 557.496 305.704V338.664" stroke="#263238" stroke-miterlimit="10" stroke-linecap="round"/>
<path d="M580.773 285.392C577.259 285.495 573.784 286.151 570.474 287.337" stroke="#263238" stroke-miterlimit="10" stroke-linecap="round"/>
<path d="M586.218 285.59C586.218 285.59 585.602 285.5 584.576 285.434" stroke="#263238" stroke-miterlimit="10" stroke-linecap="round"/>
<path d="M592.447 317.252C594.142 314.303 590.042 308.747 583.291 304.842C576.539 300.938 569.692 300.163 567.998 303.112C566.303 306.062 570.403 311.618 577.154 315.522C583.906 319.426 590.753 320.201 592.447 317.252Z" fill="#386DF4" stroke="#263238" stroke-miterlimit="10"/>
<path d="M578.785 307.072C576.011 304.906 572.916 303.19 569.611 301.988C569.611 301.988 561.233 300.603 559.328 306.034" stroke="#263238" stroke-miterlimit="10" stroke-linecap="round"/>
<path d="M582.859 310.697C582.859 310.697 582.449 310.244 581.676 309.519" stroke="#263238" stroke-miterlimit="10" stroke-linecap="round"/>
<path d="M560.601 306.355C560.601 306.355 550.745 304.435 550.745 311.142C550.745 317.85 557.751 323.28 560.601 330.918C563.451 338.557 568.88 338.903 571.747 331.24C574.613 323.577 570.473 309.544 560.601 306.355Z" fill="#386DF4" stroke="#263238" stroke-miterlimit="10"/>
<path d="M553.915 306.668C553.915 306.668 562.507 310.187 565.077 321.36Z" fill="#386DF4"/>
<path d="M553.915 306.668C553.915 306.668 562.507 310.187 565.077 321.36" stroke="#263238" stroke-miterlimit="10"/>
<path d="M554.548 321.368V339.579" stroke="#263238" stroke-miterlimit="10" stroke-linecap="round"/>
<path d="M570.367 375.035C572.727 367.491 573.929 359.631 573.931 351.724C573.931 346.938 573.441 342.164 572.469 337.477H532.224C531.264 342.165 530.785 346.939 530.795 351.724C530.798 359.631 531.999 367.491 534.359 375.035H570.367Z" fill="#263238"/>
<path d="M531.255 344.135C531.14 345.234 531.049 346.346 530.984 347.473H573.808C573.742 346.341 573.652 345.229 573.537 344.135H531.255Z" fill="#7A7A7A"/>
<path d="M573.348 361.167C573.485 360.069 573.6 358.956 573.693 357.83H531.099C531.192 358.929 531.307 360.041 531.444 361.167H573.348Z" fill="#7A7A7A"/>
<path d="M536.06 351.914C536.078 352.261 535.992 352.606 535.812 352.903C535.633 353.201 535.369 353.438 535.055 353.583C534.74 353.729 534.389 353.776 534.047 353.72C533.705 353.663 533.388 353.505 533.137 353.266C532.885 353.027 532.711 352.718 532.637 352.378C532.562 352.039 532.591 351.685 532.719 351.362C532.847 351.039 533.068 350.762 533.355 350.566C533.642 350.371 533.98 350.266 534.327 350.266C534.773 350.259 535.204 350.428 535.528 350.736C535.852 351.044 536.043 351.466 536.06 351.914Z" fill="#8C8C8C"/>
<path d="M544.725 351.914C544.743 352.261 544.657 352.606 544.478 352.903C544.298 353.201 544.035 353.438 543.72 353.583C543.405 353.729 543.054 353.776 542.712 353.72C542.37 353.663 542.053 353.505 541.802 353.266C541.55 353.027 541.376 352.718 541.302 352.378C541.227 352.039 541.256 351.685 541.384 351.362C541.512 351.039 541.734 350.762 542.02 350.566C542.307 350.371 542.645 350.266 542.992 350.266C543.438 350.259 543.869 350.428 544.193 350.736C544.517 351.044 544.708 351.466 544.725 351.914Z" fill="#8C8C8C"/>
<path d="M553.39 351.914C553.408 352.261 553.322 352.606 553.143 352.903C552.964 353.201 552.7 353.438 552.385 353.583C552.07 353.729 551.719 353.776 551.377 353.72C551.036 353.663 550.718 353.505 550.467 353.266C550.215 353.027 550.041 352.718 549.967 352.378C549.892 352.039 549.921 351.685 550.049 351.362C550.177 351.039 550.399 350.762 550.685 350.566C550.972 350.371 551.31 350.266 551.657 350.266C552.103 350.259 552.534 350.428 552.858 350.736C553.182 351.044 553.373 351.466 553.39 351.914Z" fill="#8C8C8C"/>
<path d="M562.055 351.914C562.073 352.261 561.987 352.606 561.808 352.903C561.629 353.201 561.365 353.438 561.05 353.583C560.735 353.729 560.384 353.776 560.043 353.72C559.701 353.663 559.383 353.505 559.132 353.266C558.881 353.027 558.706 352.718 558.632 352.378C558.557 352.039 558.586 351.685 558.714 351.362C558.842 351.039 559.064 350.762 559.35 350.566C559.637 350.371 559.975 350.266 560.322 350.266C560.768 350.259 561.199 350.428 561.523 350.736C561.847 351.044 562.038 351.466 562.055 351.914Z" fill="#8C8C8C"/>
<path d="M570.72 351.914C570.738 352.261 570.652 352.606 570.473 352.903C570.294 353.201 570.03 353.438 569.715 353.583C569.4 353.729 569.05 353.776 568.708 353.72C568.366 353.663 568.049 353.505 567.797 353.266C567.546 353.027 567.371 352.718 567.297 352.378C567.222 352.039 567.251 351.685 567.379 351.362C567.507 351.039 567.729 350.762 568.015 350.566C568.302 350.371 568.64 350.266 568.987 350.266C569.433 350.259 569.864 350.428 570.188 350.736C570.512 351.044 570.703 351.466 570.72 351.914Z" fill="#8C8C8C"/>
<path d="M518.261 375.447H583.089" stroke="#263238" stroke-linecap="round" stroke-linejoin="round"/>
<path d="M124.785 375.447H510.869" stroke="#263238" stroke-linecap="round" stroke-linejoin="round"/>
<path d="M22.6523 375.447H117.631" stroke="#263238" stroke-linecap="round" stroke-linejoin="round"/>
</svg>
