<svg width="500" height="500" viewBox="0 0 500 500" fill="none" xmlns="http://www.w3.org/2000/svg">
<path d="M433.62 110.35C432.087 107.79 430.487 105.28 428.82 102.82C406.59 70.16 369.59 47.82 333.63 37.68C317.954 33.3204 301.813 30.8495 285.55 30.32C179.64 26.47 140.73 113.79 106.61 136.32C72.49 158.85 20.12 197.32 26.69 278.08C31.69 339.5 66.62 398.24 130.44 424.96C137.65 427.986 145.049 430.541 152.59 432.61C167.863 436.744 183.551 439.156 199.36 439.8C247.61 441.95 286.79 430.31 325.11 401.03C334.02 394.22 342.88 386.54 354.44 385.7C362.85 385.09 370.81 388.1 362.03 396.23C351.71 405.77 363.62 424.54 389.82 411.5C433.59 389.72 451.59 342.72 460.07 294.93C470.48 236.26 465.44 163.32 433.62 110.35Z" fill="#386DF4"/>
<path opacity="0.7" d="M433.62 110.35C432.087 107.79 430.487 105.28 428.82 102.82C406.59 70.16 369.59 47.82 333.63 37.68C317.954 33.3204 301.813 30.8495 285.55 30.32C179.64 26.47 140.73 113.79 106.61 136.32C72.49 158.85 20.12 197.32 26.69 278.08C31.69 339.5 66.62 398.24 130.44 424.96C137.65 427.986 145.049 430.541 152.59 432.61C167.863 436.744 183.551 439.156 199.36 439.8C247.61 441.95 286.79 430.31 325.11 401.03C334.02 394.22 342.88 386.54 354.44 385.7C362.85 385.09 370.81 388.1 362.03 396.23C351.71 405.77 363.62 424.54 389.82 411.5C433.59 389.72 451.59 342.72 460.07 294.93C470.48 236.26 465.44 163.32 433.62 110.35Z" fill="white"/>
<path d="M149.94 384.08C147.3 384.91 141.15 384.08 141.15 384.08C141.15 384.08 142.92 380.19 143.06 379.96C144.72 377.28 149.51 373.08 152.94 373.96C153.505 374.118 154.03 374.392 154.481 374.766C154.933 375.14 155.301 375.605 155.561 376.13C155.821 376.655 155.968 377.229 155.992 377.815C156.016 378.401 155.917 378.985 155.7 379.53C154.85 381.87 152.19 383.38 149.94 384.08Z" fill="#263238"/>
<path d="M92.66 382.36C92.6 382.36 91.99 378.15 91.98 377.87C91.89 374.72 93.57 368.58 96.9 367.4C97.4581 367.219 98.048 367.158 98.6313 367.221C99.2145 367.284 99.778 367.469 100.285 367.764C100.792 368.06 101.23 368.459 101.572 368.935C101.915 369.412 102.152 369.955 102.27 370.53C102.86 372.95 101.47 375.68 99.99 377.53C98.24 379.65 92.66 382.36 92.66 382.36Z" fill="#263238"/>
<path d="M93.73 427.75C95.79 428.01 99.87 426.85 101.01 426.51C101.2 428.27 101.42 430 101.73 431.7C101.87 432.43 101.97 433.19 102.15 433.88C102.33 434.57 102.49 435.28 102.65 435.97C103.04 437.38 103.39 438.69 103.79 439.97C103.98 440.64 104.18 441.25 104.38 441.89C103.89 440.89 103.09 439.29 103 439.15C101.48 436.83 97.19 433.24 94.2 434.06C93.7073 434.209 93.2514 434.46 92.862 434.796C92.4725 435.133 92.1582 435.547 91.9394 436.013C91.7206 436.479 91.6022 436.986 91.592 437.5C91.5818 438.015 91.6799 438.526 91.88 439C92.67 441 95.05 442.32 97.04 442.89C99.23 443.52 104.04 442.83 104.64 442.74C105.14 444.3 105.64 445.82 106.12 447.23C106.44 448.16 106.75 449.03 107.05 449.88H109.05C108.65 448.88 108.24 447.77 107.81 446.61C107.38 445.45 106.87 444 106.39 442.61C106.93 442.38 111.11 440.61 112.79 438.98C114.121 439.806 115.5 440.55 116.92 441.21C116.46 442.79 116.04 444.33 115.67 445.77C115.3 447.21 114.96 448.58 114.67 449.88H116.67C116.92 448.71 117.19 447.51 117.49 446.21C117.79 444.91 118.15 443.51 118.49 442.09C119.08 442.2 123.87 443.09 126.08 442.55C128.08 442.06 130.52 440.87 131.38 438.86C131.594 438.396 131.709 437.893 131.718 437.382C131.726 436.871 131.628 436.364 131.43 435.894C131.231 435.423 130.936 434.999 130.564 434.649C130.193 434.299 129.752 434.03 129.27 433.86C126.27 432.93 121.88 436.34 120.27 438.6C120.17 438.75 119.15 440.6 118.65 441.54C118.87 440.68 119.1 439.83 119.35 438.94C119.7 437.66 120.11 436.31 120.51 435.01L121.2 433.01C121.42 432.31 121.72 431.68 121.98 431.01C122.38 430.01 122.84 429.01 123.3 428.01C124.58 428.44 128.37 429.66 130.37 429.49C132.37 429.32 135.01 428.49 136.17 426.65C136.459 426.223 136.655 425.739 136.745 425.231C136.835 424.723 136.817 424.202 136.693 423.701C136.568 423.2 136.34 422.731 136.022 422.325C135.705 421.918 135.306 421.582 134.85 421.34C132.06 419.97 127.17 422.68 125.24 424.67C125.17 424.73 124.81 425.19 124.38 425.75C124.86 424.75 125.38 423.83 125.85 422.88C127.31 420.18 128.85 417.48 130.45 414.76L131.45 413.06C132.53 413.43 136.63 414.78 138.72 414.6C140.81 414.42 143.36 413.6 144.52 411.76C144.809 411.333 145.005 410.851 145.095 410.343C145.185 409.836 145.167 409.316 145.042 408.816C144.918 408.316 144.689 407.848 144.372 407.442C144.054 407.036 143.655 406.701 143.2 406.46C140.41 405.09 135.52 407.79 133.59 409.78C133.52 409.85 133.08 410.41 132.59 411.03C133.42 409.54 134.23 408.03 134.99 406.54C136.303 403.952 137.442 401.279 138.4 398.54C138.78 398.68 143.55 400.37 145.87 400.16C147.94 399.98 150.51 399.16 151.68 397.32C151.968 396.893 152.164 396.41 152.253 395.902C152.342 395.394 152.323 394.873 152.198 394.373C152.072 393.873 151.843 393.405 151.525 393C151.206 392.594 150.806 392.26 150.35 392.02C147.57 390.65 142.67 393.35 140.74 395.34C140.6 395.48 139.05 397.49 138.52 398.23V398.14C139.401 395.433 140.034 392.652 140.41 389.83C140.768 387.318 140.975 384.787 141.03 382.25C141.11 379.89 141.03 377.74 140.96 375.83C140.91 374.83 140.84 373.83 140.77 372.97H140.82C140.82 372.97 142.12 369.44 142.17 369.21C142.78 366.51 142.37 360.93 139.7 359.34C139.249 359.091 138.751 358.939 138.238 358.895C137.724 358.851 137.207 358.915 136.721 359.084C136.234 359.253 135.788 359.522 135.413 359.875C135.037 360.227 134.74 360.655 134.54 361.13C133.62 363.13 134.35 365.71 135.33 367.54C136.31 369.37 139.76 372.14 140.62 372.81C140.68 373.73 140.73 374.71 140.76 375.81C140.76 377.72 140.82 379.87 140.69 382.22C140.69 382.84 140.6 383.51 140.55 384.16C140.4 383.05 140.18 381.52 140.14 381.38C139.44 378.7 136.5 373.93 133.41 373.76C132.891 373.744 132.374 373.838 131.893 374.036C131.413 374.235 130.981 374.533 130.624 374.911C130.268 375.289 129.996 375.739 129.826 376.23C129.656 376.721 129.593 377.243 129.64 377.76C129.74 379.95 131.59 381.92 133.3 383.09C135.01 384.26 139.5 385.16 140.47 385.33C140.34 386.77 140.17 388.25 139.91 389.78C139.49 392.561 138.821 395.299 137.91 397.96H137.74C137.74 396.96 137.65 394.73 137.63 394.55C137.22 391.8 134.83 386.74 131.77 386.23C131.259 386.16 130.74 386.197 130.245 386.341C129.75 386.485 129.291 386.731 128.897 387.064C128.504 387.397 128.185 387.81 127.962 388.274C127.738 388.738 127.615 389.245 127.6 389.76C127.45 391.95 129.08 394.1 130.6 395.46C132.41 397.01 137.46 398.46 137.65 398.53C136.66 401.146 135.501 403.695 134.18 406.16C133.18 407.99 132.18 409.81 131.08 411.62C131.08 410.89 130.99 408.01 130.96 407.8C130.56 405.06 128.17 400 125.11 399.49C124.606 399.43 124.095 399.476 123.609 399.623C123.123 399.77 122.673 400.016 122.287 400.346C121.901 400.676 121.588 401.082 121.366 401.538C121.145 401.995 121.02 402.493 121 403C120.86 405.18 122.48 407.34 124.05 408.69C125.81 410.21 130.65 411.63 131.05 411.75C130.56 412.57 130.05 413.4 129.57 414.22C127.95 416.9 126.31 419.57 124.78 422.27C124.25 423.2 123.78 424.14 123.26 425.08C123.26 423.98 123.18 421.98 123.15 421.81C122.75 419.07 120.36 414.01 117.3 413.49C116.789 413.42 116.269 413.458 115.773 413.601C115.278 413.745 114.818 413.991 114.424 414.324C114.03 414.657 113.71 415.069 113.485 415.533C113.261 415.998 113.136 416.504 113.12 417.02C112.98 419.21 114.6 421.36 116.12 422.72C117.64 424.08 121.73 425.35 122.87 425.72C122.06 427.29 121.29 428.86 120.61 430.44C120.32 431.13 119.99 431.82 119.76 432.5C119.53 433.18 119.27 433.85 119.02 434.5C118.57 435.89 118.14 437.18 117.75 438.5C117.55 439.16 117.38 439.78 117.19 440.43C117.34 439.31 117.55 437.54 117.55 437.38C117.55 434.6 115.97 429.24 113.02 428.27C112.526 428.122 112.007 428.08 111.496 428.147C110.985 428.213 110.494 428.387 110.054 428.655C109.615 428.924 109.237 429.283 108.945 429.707C108.653 430.132 108.454 430.613 108.36 431.12C108.302 431.386 108.269 431.658 108.26 431.93C106.924 433.97 106.129 436.317 105.95 438.75C105.95 438.92 106.11 441.03 106.22 442.1C105.93 441.26 105.65 440.42 105.37 439.54C104.95 438.28 104.56 436.93 104.17 435.62L103.63 433.55C103.43 432.85 103.32 432.15 103.17 431.45C102.96 430.45 102.79 429.32 102.63 428.24C103.94 427.9 107.78 426.82 109.35 425.58C110.92 424.34 112.67 422.2 112.62 420.01C112.625 419.497 112.522 418.989 112.319 418.519C112.115 418.048 111.815 417.625 111.439 417.278C111.062 416.93 110.616 416.665 110.131 416.5C109.645 416.335 109.131 416.274 108.62 416.32C105.54 416.7 102.95 421.66 102.43 424.39C102.43 424.48 102.37 425.06 102.32 425.76C102.19 424.7 102.06 423.64 101.96 422.56C101.69 419.5 101.51 416.38 101.32 413.25C101.32 412.6 101.23 411.94 101.19 411.25C102.29 410.97 106.46 409.84 108.1 408.53C109.74 407.22 111.43 405.15 111.38 402.96C111.383 402.448 111.28 401.94 111.076 401.471C110.872 401.001 110.572 400.579 110.195 400.231C109.819 399.884 109.374 399.619 108.889 399.453C108.404 399.288 107.89 399.225 107.38 399.27C104.3 399.66 101.71 404.62 101.19 407.34C101.19 407.44 101.12 408.14 101.06 408.93C100.93 407.23 100.78 405.53 100.58 403.86C100.241 400.985 99.7132 398.136 99 395.33C99.39 395.23 104.3 394 106.12 392.55C107.74 391.26 109.45 389.17 109.4 386.98C109.403 386.468 109.3 385.96 109.096 385.491C108.892 385.021 108.592 384.599 108.215 384.251C107.839 383.904 107.394 383.639 106.909 383.473C106.424 383.308 105.91 383.245 105.4 383.29C102.32 383.68 99.73 388.64 99.21 391.36C99.21 391.56 98.99 394.09 98.95 395C98.9546 394.967 98.9546 394.933 98.95 394.9C98.1945 392.148 97.1903 389.47 95.95 386.9C94.8557 384.608 93.6303 382.381 92.28 380.23C91.04 378.23 89.79 376.46 88.67 374.91C88.06 374.07 87.49 373.32 86.94 372.63H87C87 372.63 86.13 368.98 86 368.76C85 366.17 81.6 361.76 78.5 361.89C77.9858 361.93 77.4858 362.078 77.0325 362.325C76.5792 362.571 76.1826 362.909 75.8686 363.319C75.5546 363.728 75.3302 364.198 75.2098 364.7C75.0895 365.202 75.0759 365.723 75.17 366.23C75.5 368.39 77.55 370.15 79.37 371.14C81.19 372.13 85.61 372.53 86.69 372.61C87.25 373.35 87.83 374.14 88.45 375.03C89.53 376.6 90.74 378.38 91.93 380.4C92.24 380.94 92.56 381.54 92.88 382.11C92.14 381.26 91.12 380.11 91 380.01C88.94 378.16 83.86 375.8 81.19 377.37C80.7497 377.639 80.371 377.998 80.0784 378.423C79.7857 378.848 79.5858 379.33 79.4915 379.837C79.3972 380.345 79.4106 380.866 79.531 381.368C79.6513 381.87 79.8758 382.341 80.19 382.75C81.48 384.52 84.11 385.14 86.19 385.18C88.27 385.22 92.5 383.48 93.41 383.1C94.1 384.37 94.77 385.69 95.41 387.1C96.5806 389.678 97.5176 392.355 98.21 395.1L98.05 395.17C97.46 394.31 96.19 392.52 96.05 392.39C94.2 390.32 89.42 387.39 86.58 388.68C86.1157 388.904 85.7037 389.223 85.3706 389.617C85.0375 390.01 84.7909 390.47 84.6466 390.965C84.5024 391.459 84.4637 391.979 84.5332 392.49C84.6027 393.001 84.7788 393.492 85.05 393.93C86.13 395.83 88.68 396.74 90.73 397C93.1 397.3 98.11 395.73 98.3 395.67C98.9349 398.414 99.3892 401.197 99.66 404C99.86 406.07 99.98 408.16 100.08 410.27C99.69 409.65 98.02 407.27 97.88 407.15C96.03 405.08 91.25 402.15 88.41 403.44C87.9457 403.664 87.5337 403.983 87.2006 404.377C86.8675 404.77 86.6209 405.23 86.4766 405.725C86.3324 406.219 86.2938 406.739 86.3632 407.25C86.4327 407.761 86.6088 408.252 86.88 408.69C87.96 410.59 90.51 411.5 92.56 411.76C94.87 412.06 99.69 410.57 100.09 410.44C100.09 411.44 100.19 412.35 100.22 413.31C100.35 416.44 100.46 419.58 100.66 422.67C100.73 423.75 100.84 424.8 100.95 425.86C100.33 424.95 99.17 423.32 99.05 423.19C97.2 421.12 92.42 418.19 89.58 419.49C89.1149 419.712 88.7019 420.029 88.368 420.422C88.0341 420.814 87.7868 421.273 87.6424 421.768C87.498 422.262 87.4596 422.782 87.5299 423.292C87.6001 423.803 87.7773 424.293 88.05 424.73C89.13 426.58 91.68 427.49 93.73 427.75Z" fill="#263238"/>
<path d="M299.66 130.78C296.993 129.38 294.5 126.847 292.18 123.18C289.77 119.281 288.55 114.763 288.67 110.18C288.67 105.353 289.957 101.73 292.53 99.3101C295.103 96.8901 298.883 95.0567 303.87 93.8101L322.1 89.4001C329.9 87.4001 333.797 83.6601 333.79 78.1801C333.79 75.2201 332.35 72.6467 329.47 70.4601C326.59 68.2734 321.64 67.1834 314.62 67.1901C308.534 67.1498 302.474 67.9747 296.62 69.6401C291.857 70.9139 287.293 72.8423 283.06 75.3701C280.388 73.3267 278.094 70.8326 276.28 68.0001C274.343 64.8805 273.366 61.2605 273.47 57.5901C273.421 53.7634 274.665 50.0321 277 47.0001C279.588 43.7664 282.915 41.2013 286.7 39.5201C291.387 37.4054 296.344 35.9483 301.43 35.1901C307.655 34.2174 313.949 33.7492 320.25 33.7901C338.63 33.7634 352.547 37.8334 362 46.0001C371.453 54.1667 376.167 64.8834 376.14 78.1501C376.14 103.09 358.527 119.067 323.3 126.08L299.66 130.78ZM291.94 161.41C291.94 155.023 293.94 149.763 297.94 145.63C301.94 141.497 307.437 139.43 314.43 139.43C321.437 139.43 326.93 141.497 330.91 145.63C334.89 149.763 336.89 155.023 336.91 161.41C336.91 167.81 334.91 173.07 330.91 177.19C326.91 181.31 321.417 183.377 314.43 183.39C307.41 183.39 301.913 181.323 297.94 177.19C293.967 173.057 291.967 167.797 291.94 161.41Z" fill="#263238"/>
<path d="M314.39 183.89C307.27 183.89 301.6 181.75 297.54 177.54C293.48 173.33 291.44 167.91 291.44 161.41C291.44 154.91 293.49 149.49 297.54 145.28C301.59 141.07 307.27 138.93 314.39 138.93C321.51 138.93 327.18 141.07 331.23 145.28C335.28 149.49 337.33 154.92 337.33 161.41C337.33 167.9 335.28 173.34 331.23 177.54C327.18 181.74 321.51 183.89 314.39 183.89ZM314.39 139.89C307.55 139.89 302.12 141.89 298.26 145.89C294.4 149.89 292.44 155.1 292.44 161.32C292.44 167.54 294.44 172.74 298.26 176.76C302.08 180.78 307.55 182.76 314.39 182.76C321.23 182.76 326.65 180.76 330.51 176.76C334.37 172.76 336.33 167.55 336.33 161.32C336.33 155.09 334.38 150 330.51 146C326.64 142 321.23 139.93 314.39 139.93V139.89ZM299.66 131.24C299.576 131.239 299.494 131.219 299.42 131.18C296.71 129.75 294.13 127.18 291.75 123.41C289.307 119.433 288.064 114.836 288.17 110.17C288.17 105.22 289.52 101.44 292.17 98.9301C294.82 96.4201 298.69 94.5801 303.74 93.3201L322 88.9101C329.6 86.9101 333.3 83.4201 333.3 78.1801C333.3 75.4001 331.92 72.9301 329.18 70.8601C326.44 68.7901 321.5 67.6901 314.63 67.6901C308.592 67.6535 302.579 68.4716 296.77 70.1201C292.055 71.3865 287.536 73.2943 283.34 75.7901C283.254 75.8464 283.153 75.8764 283.05 75.8764C282.947 75.8764 282.846 75.8464 282.76 75.7901C280.05 73.7083 277.719 71.1744 275.87 68.3001C273.886 65.0917 272.888 61.3709 273 57.6001C272.937 53.6508 274.209 49.7959 276.61 46.6601C279.238 43.3559 282.619 40.7293 286.47 39.0001C291.199 36.8675 296.199 35.397 301.33 34.6301C307.582 33.6544 313.902 33.1829 320.23 33.2201C338.66 33.2201 352.81 37.3901 362.3 45.6201C371.79 53.8501 376.61 64.8101 376.61 78.1501C376.61 103.24 358.7 119.53 323.37 126.57L299.75 131.24H299.66ZM314.66 66.6501C321.75 66.6501 326.85 67.7801 329.81 70.0201C332.77 72.2601 334.33 75.0201 334.33 78.1401C334.33 83.8201 330.28 87.76 322.27 89.84L304 94.3301C299.12 95.5501 295.37 97.3301 292.88 99.7001C290.39 102.07 289.18 105.54 289.18 110.21C289.072 114.689 290.263 119.104 292.61 122.92C294.84 126.42 297.24 128.92 299.75 130.26L323.19 125.62C357.98 118.69 375.62 102.73 375.62 78.1801C375.62 65.1801 370.92 54.4501 361.62 46.4001C352.32 38.3501 338.39 34.2501 320.21 34.2501C313.936 34.2095 307.669 34.6777 301.47 35.6501C296.43 36.4007 291.517 37.8409 286.87 39.9301C283.16 41.5828 279.899 44.0996 277.36 47.2701C275.107 50.2358 273.923 53.8763 274 57.6001C273.899 61.1711 274.848 64.6934 276.73 67.7301C278.454 70.404 280.614 72.7702 283.12 74.7301C287.316 72.2791 291.819 70.396 296.51 69.1301C302.401 67.4661 308.498 66.6447 314.62 66.6901L314.66 66.6501Z" fill="#263238"/>
<path d="M217.09 289.92L219.07 450.06H297.4L290.96 291.9L217.09 289.92Z" fill="#263238"/>
<path d="M297.4 450.56H219.07C218.937 450.56 218.81 450.507 218.716 450.414C218.623 450.32 218.57 450.193 218.57 450.06L216.57 289.92C216.574 289.786 216.628 289.658 216.72 289.56C216.769 289.512 216.827 289.475 216.89 289.451C216.954 289.427 217.022 289.416 217.09 289.42L290.96 291.42C291.087 291.425 291.207 291.477 291.298 291.565C291.388 291.654 291.443 291.773 291.45 291.9L297.9 450C297.904 450.067 297.894 450.133 297.87 450.195C297.845 450.258 297.808 450.314 297.76 450.36C297.719 450.418 297.665 450.466 297.603 450.501C297.54 450.535 297.471 450.555 297.4 450.56ZM219.56 449.56H296.88L290.48 292.39L217.59 290.39L219.56 449.56Z" fill="#263238"/>
<path d="M217.09 232.71L219.07 392.85H297.4L290.96 234.69L217.09 232.71Z" fill="white"/>
<path d="M297.4 393.35H219.07C218.937 393.35 218.81 393.297 218.716 393.204C218.623 393.11 218.57 392.983 218.57 392.85L216.57 232.72C216.57 232.585 216.624 232.455 216.72 232.36C216.766 232.309 216.824 232.269 216.888 232.243C216.952 232.217 217.021 232.206 217.09 232.21L290.96 234.21C291.087 234.21 291.208 234.259 291.3 234.346C291.391 234.434 291.445 234.554 291.45 234.68L297.89 392.84C297.894 392.908 297.884 392.976 297.86 393.04C297.836 393.104 297.798 393.162 297.75 393.21C297.655 393.3 297.53 393.35 297.4 393.35ZM219.56 392.35H296.88L290.48 235.18L217.59 233.18L219.56 392.35Z" fill="#263238"/>
<path d="M244.34 249.98L252.5 263.58L238.23 366.22L259.75 387.75L273.8 360.79L257.71 264.26L265.87 253.16L256.81 238.65L244.34 249.98Z" fill="#263238"/>
<path d="M259.75 388.25C259.684 388.251 259.619 388.238 259.559 388.212C259.499 388.186 259.445 388.148 259.4 388.1L237.87 366.58C237.816 366.523 237.775 366.455 237.751 366.381C237.727 366.307 237.719 366.228 237.73 366.15L252 263.68L243.94 250.24C243.878 250.141 243.852 250.024 243.869 249.908C243.885 249.793 243.942 249.687 244.03 249.61L256.49 238.28C256.547 238.233 256.612 238.198 256.683 238.178C256.753 238.157 256.827 238.151 256.9 238.16C256.972 238.17 257.04 238.196 257.101 238.236C257.161 238.275 257.212 238.328 257.25 238.39L266.31 252.89C266.366 252.973 266.396 253.07 266.396 253.17C266.396 253.27 266.366 253.367 266.31 253.45L258.31 264.38L274.36 360.7C274.379 360.809 274.361 360.922 274.31 361.02L260.31 388.02C260.273 388.089 260.22 388.149 260.156 388.194C260.092 388.239 260.018 388.269 259.94 388.28L259.75 388.25ZM238.75 366.05L259.61 386.91L273.27 360.7L257.21 264.34C257.19 264.206 257.222 264.07 257.3 263.96L265.3 253.13L256.73 239.43L245 250.08L253 263.32C253.057 263.42 253.082 263.535 253.07 263.65L238.75 366.05Z" fill="#263238"/>
<path d="M252.5 263.58L252.19 265.83L261.29 259.39L265.87 253.16L261.5 246.16L247.85 255.82L252.5 263.58Z" fill="#386DF4"/>
<path d="M252.19 266.33C252.098 266.328 252.008 266.3 251.93 266.25C251.847 266.2 251.78 266.128 251.737 266.041C251.695 265.954 251.678 265.856 251.69 265.76L251.98 263.68L247.42 256.08C247.351 255.972 247.327 255.842 247.354 255.717C247.38 255.591 247.454 255.481 247.56 255.41L261.21 245.76C261.323 245.68 261.463 245.648 261.6 245.67C261.666 245.685 261.729 245.713 261.784 245.752C261.839 245.792 261.885 245.842 261.92 245.9L266.29 252.9C266.346 252.983 266.376 253.08 266.376 253.18C266.376 253.28 266.346 253.377 266.29 253.46L261.72 259.69C261.685 259.732 261.645 259.769 261.6 259.8L252.5 266.24C252.409 266.302 252.3 266.333 252.19 266.33ZM248.51 256L252.93 263.36C252.987 263.46 253.012 263.575 253 263.69L252.84 264.79L260.94 259.07L265.27 253.17L261.36 246.92L248.51 256Z" fill="#263238"/>
<path d="M247.78 297.55L261.63 287.75L259.68 276.05L249.79 283.04L247.78 297.55Z" fill="#386DF4"/>
<path d="M247.78 298C247.688 298.002 247.598 297.978 247.52 297.93C247.438 297.879 247.371 297.807 247.329 297.72C247.286 297.633 247.269 297.536 247.28 297.44L249.28 282.93C249.29 282.862 249.313 282.797 249.35 282.738C249.386 282.68 249.434 282.629 249.49 282.59L259.37 275.59C259.439 275.541 259.519 275.511 259.603 275.502C259.688 275.493 259.772 275.506 259.85 275.54C259.928 275.574 259.996 275.626 260.048 275.692C260.1 275.759 260.135 275.837 260.15 275.92L262.1 287.62C262.115 287.712 262.104 287.807 262.069 287.893C262.033 287.979 261.975 288.054 261.9 288.11L248.07 298C247.975 298.028 247.875 298.028 247.78 298ZM250.26 283.29L248.43 296.43L261.08 287.43L259.32 276.83L250.26 283.29Z" fill="#263238"/>
<path d="M260.15 386.98L270.94 366.27L251.81 379.81L259.47 387.47L260.15 386.98Z" fill="#386DF4"/>
<path d="M259.47 388C259.335 388 259.205 387.946 259.11 387.85L251.46 380.19C251.406 380.139 251.365 380.077 251.339 380.007C251.313 379.938 251.303 379.864 251.31 379.79C251.316 379.718 251.339 379.649 251.375 379.587C251.411 379.524 251.461 379.471 251.52 379.43L270.65 365.9C270.738 365.83 270.847 365.792 270.96 365.792C271.073 365.792 271.182 365.83 271.27 365.9C271.353 365.973 271.41 366.072 271.43 366.181C271.45 366.29 271.432 366.402 271.38 366.5L260.6 387.21C260.561 387.281 260.506 387.343 260.44 387.39L259.76 387.87C259.682 387.946 259.579 387.993 259.47 388ZM252.58 379.89L259.52 386.83L259.76 386.66L269.54 367.9L252.58 379.89Z" fill="#263238"/>
<path d="M263.94 301.63L245.38 314.76L243.37 329.26L265.89 313.33L263.94 301.63Z" fill="#386DF4"/>
<path d="M243.37 329.76C243.278 329.762 243.188 329.738 243.11 329.69C243.025 329.64 242.957 329.565 242.914 329.476C242.872 329.387 242.856 329.288 242.87 329.19L244.87 314.69C244.889 314.555 244.961 314.433 245.07 314.35L263.63 301.23C263.699 301.179 263.779 301.147 263.864 301.136C263.949 301.126 264.035 301.137 264.115 301.169C264.194 301.201 264.263 301.253 264.317 301.32C264.37 301.386 264.406 301.466 264.42 301.55L266.36 313.25C266.38 313.342 266.371 313.438 266.336 313.526C266.3 313.613 266.239 313.688 266.16 313.74L243.64 329.67C243.56 329.725 243.467 329.756 243.37 329.76ZM245.85 315L244 328.19L265.33 313.1L263.56 302.5L245.85 315Z" fill="#263238"/>
<path d="M269.13 332.76L240.02 353.35L238.23 366.22L239.09 367.08L271.08 344.46L269.13 332.76Z" fill="#386DF4"/>
<path d="M239.09 367.58C239.024 367.582 238.958 367.57 238.896 367.546C238.834 367.522 238.778 367.486 238.73 367.44L237.87 366.58C237.816 366.524 237.775 366.456 237.751 366.381C237.727 366.307 237.719 366.228 237.73 366.15L239.52 353.28C239.544 353.144 239.619 353.022 239.73 352.94L268.84 332.35C268.909 332.302 268.99 332.271 269.074 332.263C269.158 332.254 269.243 332.266 269.321 332.299C269.399 332.332 269.468 332.385 269.52 332.451C269.572 332.518 269.607 332.597 269.62 332.68L271.57 344.38C271.583 344.472 271.571 344.566 271.536 344.652C271.5 344.738 271.443 344.813 271.37 344.87L239.37 367.49C239.287 367.546 239.19 367.578 239.09 367.58ZM238.76 366.05L239.14 366.43L270.53 344.23L268.77 333.63L240.48 353.63L238.76 366.05Z" fill="#263238"/>
<path d="M255.9 243.41L235.96 264.94L229.16 237.07L231.29 228.53L255.9 243.41Z" fill="white"/>
<path d="M236 265.44H235.87C235.783 265.418 235.704 265.373 235.641 265.309C235.577 265.246 235.532 265.167 235.51 265.08L228.72 237.21C228.7 237.131 228.7 237.049 228.72 236.97L230.85 228.43C230.87 228.355 230.906 228.286 230.957 228.227C231.007 228.168 231.069 228.122 231.14 228.09C231.21 228.056 231.287 228.038 231.365 228.038C231.443 228.038 231.52 228.056 231.59 228.09L256.16 243C256.224 243.038 256.279 243.09 256.321 243.153C256.362 243.215 256.39 243.286 256.4 243.36C256.409 243.434 256.403 243.509 256.38 243.579C256.358 243.65 256.32 243.715 256.27 243.77L236.33 265.3C236.24 265.384 236.123 265.434 236 265.44ZM229.72 237.07L236.27 263.92L255.16 243.52L231.66 229.31L229.72 237.07Z" fill="#263238"/>
<path d="M255.9 243.41L271.08 263.35L278.33 235.94L275.84 229.59L255.9 243.41Z" fill="white"/>
<path d="M271.08 263.85C271.004 263.849 270.928 263.832 270.859 263.799C270.79 263.766 270.729 263.719 270.68 263.66L255.5 243.66C255.458 243.607 255.428 243.546 255.413 243.48C255.397 243.414 255.396 243.346 255.41 243.28C255.42 243.213 255.444 243.15 255.48 243.093C255.516 243.036 255.564 242.987 255.62 242.95L275.55 229.13C275.614 229.087 275.686 229.059 275.762 229.047C275.838 229.034 275.916 229.039 275.99 229.06C276.061 229.086 276.126 229.126 276.181 229.177C276.236 229.229 276.28 229.291 276.31 229.36L278.8 235.7C278.83 235.801 278.83 235.909 278.8 236.01L271.55 263.43C271.528 263.522 271.479 263.605 271.409 263.669C271.34 263.733 271.253 263.775 271.16 263.79L271.08 263.85ZM256.62 243.53L270.86 262.24L277.81 236L275.61 230.4L256.62 243.53Z" fill="#263238"/>
<path d="M113.6 228.27C113.6 228.27 106.8 214.43 103.4 209.9C100 205.37 96.59 202.64 92.74 201.96C88.89 201.28 86.16 201.51 83.21 200.37C80.26 199.23 74.36 197.65 72.78 195.61C71.2 193.57 68.24 194.93 69.6 198.33C70.96 201.73 75.73 204 75.73 204L79.58 205.81C79.58 205.81 67.11 207.63 66.2 208.31C65.29 208.99 54.4 209.9 54.4 209.9C54.4 209.9 59.17 218.29 65.97 222.15C72.77 226.01 94.1 222.83 94.1 222.83L100.45 236.21L113.6 228.27Z" fill="white"/>
<path d="M100.45 236.71H100.3C100.234 236.688 100.173 236.653 100.122 236.607C100.07 236.56 100.029 236.503 100 236.44L93.8 223.44C90.8 223.86 72.19 226.31 65.73 222.65C58.88 218.7 54.17 210.49 54 210.14C53.9606 210.066 53.94 209.984 53.94 209.9C53.94 209.816 53.9606 209.734 54 209.66C54.039 209.586 54.0962 209.524 54.1662 209.478C54.2362 209.433 54.3167 209.406 54.4 209.4C59.59 208.97 65.33 208.29 65.95 207.91C66.74 207.31 73.95 206.15 77.95 205.56L75.59 204.45C75.39 204.36 70.59 202.06 69.22 198.52C68.35 196.34 69.1 194.96 70.01 194.44C70.5616 194.161 71.1964 194.095 71.7937 194.253C72.3911 194.412 72.9094 194.784 73.25 195.3C74.39 196.77 78.25 198.1 81.11 199.07C81.99 199.37 82.81 199.65 83.47 199.9C85.2144 200.513 87.0348 200.883 88.88 201C90.1 201.12 91.37 201.25 92.82 201.51C96.66 202.18 100.14 204.77 103.82 209.64C107.21 214.16 113.82 227.52 114.07 228.09C114.126 228.202 114.137 228.332 114.102 228.452C114.067 228.572 113.987 228.675 113.88 228.74L100.73 236.68C100.64 236.712 100.544 236.723 100.45 236.71ZM94.1 222.33C94.194 222.329 94.2863 222.354 94.3661 222.404C94.4459 222.454 94.5097 222.525 94.55 222.61L100.66 235.49L113 228.08C111.84 225.75 106 214.21 103 210.2C99.5 205.54 96.22 203.08 92.65 202.45C91.23 202.2 89.98 202.08 88.78 201.96C86.8108 201.856 84.8656 201.479 83 200.84C82.35 200.59 81.55 200.31 80.68 200.02C77.56 198.95 73.68 197.62 72.35 195.92C72.1557 195.597 71.8507 195.357 71.4918 195.243C71.133 195.128 70.7449 195.149 70.4 195.3C69.83 195.63 69.4 196.56 70.04 198.14C71.31 201.33 75.86 203.53 75.91 203.55L79.76 205.36C79.8575 205.407 79.9379 205.484 79.9899 205.579C80.0419 205.674 80.0629 205.782 80.05 205.89C80.0321 205.997 79.9807 206.095 79.9035 206.17C79.8262 206.246 79.7269 206.295 79.62 206.31C73.73 207.17 67.12 208.31 66.46 208.71C65.6 209.36 58.46 210.05 55.22 210.33C56.51 212.33 60.7 218.6 66.22 221.71C72.8 225.44 93.81 222.36 94.02 222.33H94.1Z" fill="#263238"/>
<path d="M50.11 207.66C50.11 207.66 46.61 200.21 46.9 198.6C47.19 196.99 50.26 198.02 51.28 200.21C52.3 202.4 55.81 207.66 55.81 207.66H50.11Z" fill="white"/>
<path d="M55.81 208.16H50.11C50.0155 208.158 49.9233 208.13 49.8439 208.079C49.7644 208.028 49.7008 207.955 49.66 207.87C49.06 206.6 46.1 200.19 46.41 198.51C46.4567 198.199 46.6078 197.912 46.8385 197.698C47.0692 197.483 47.3659 197.354 47.68 197.33C48.5399 197.346 49.3777 197.605 50.0963 198.078C50.8149 198.55 51.3848 199.217 51.74 200C52.74 202.14 56.19 207.34 56.23 207.39C56.2776 207.466 56.3043 207.554 56.3072 207.644C56.3101 207.734 56.2891 207.823 56.2465 207.902C56.2038 207.981 56.141 208.048 56.0643 208.095C55.9877 208.142 55.8999 208.168 55.81 208.17V208.16ZM50.43 207.16H54.88C53.4169 204.983 52.0652 202.734 50.83 200.42C50.5653 199.832 50.1468 199.327 49.6188 198.957C49.0908 198.588 48.4728 198.368 47.83 198.32C47.51 198.32 47.44 198.52 47.41 198.69C47.21 199.71 49.11 204.3 50.43 207.16Z" fill="#263238"/>
<path d="M43.9 204.11C43.9 204.11 49.34 215.68 52.97 218.85C56.6 222.02 63.86 222.26 63.86 222.26C63.86 222.26 55.24 213.18 53.43 209.78C51.62 206.38 45 198.21 43.9 204.11Z" fill="white"/>
<path d="M63.86 222.76C63.56 222.76 56.38 222.49 52.66 219.23C48.94 215.97 43.66 204.8 43.47 204.32C43.4357 204.223 43.4357 204.117 43.47 204.02C43.75 202.53 44.4 201.7 45.39 201.55C48.21 201.12 52.58 207.02 53.93 209.55C55.69 212.85 64.2 221.82 64.28 221.91C64.3446 221.982 64.3874 222.071 64.4033 222.167C64.4192 222.262 64.4076 222.36 64.3698 222.449C64.3321 222.538 64.2697 222.615 64.1901 222.67C64.1104 222.725 64.0167 222.756 63.92 222.76H63.86ZM44.42 204.05C45.07 205.41 50.01 215.6 53.3 218.48C55.86 220.72 60.41 221.48 62.61 221.66C60.35 219.24 54.48 212.82 52.98 210.02C51.48 207.22 47.47 202.23 45.48 202.54C45 202.62 44.63 203.12 44.42 204.05Z" fill="#263238"/>
<path d="M48.28 205.13C48.28 205.13 53.72 216.7 57.35 219.88C60.98 223.06 68.24 223.28 68.24 223.28C68.24 223.28 59.62 214.21 57.81 210.8C56 207.39 49.41 199.24 48.28 205.13Z" fill="white"/>
<path d="M68.24 223.78C67.94 223.78 60.77 223.51 57.04 220.25C53.31 216.99 48.04 205.82 47.85 205.35C47.8157 205.25 47.8157 205.141 47.85 205.04C48.1367 203.553 48.7767 202.733 49.77 202.58C52.6 202.14 56.96 208.04 58.31 210.58C60.07 213.88 68.58 222.85 68.66 222.95C68.7287 223.02 68.7749 223.108 68.7928 223.205C68.8106 223.301 68.7992 223.4 68.76 223.49C68.7146 223.587 68.64 223.667 68.5467 223.719C68.4534 223.771 68.3461 223.792 68.24 223.78ZM48.8 205.07C49.45 206.43 54.39 216.62 57.68 219.5C60.25 221.74 64.79 222.5 67 222.68C64.73 220.26 58.86 213.85 57.37 211.04C55.88 208.23 51.85 203.27 49.86 203.57C49.36 203.64 49 204.15 48.8 205.07Z" fill="#263238"/>
<path d="M97.5 216.93C97.5 216.93 96.36 215.11 92.5 212.62C88.64 210.13 68.23 216.47 68.23 216.47C68.23 216.47 58.93 204.91 57.57 203.77C56.21 202.63 53.71 201.96 53.26 204.23C52.81 206.5 58.93 216.23 60.52 217.84C62.11 219.45 68.23 223.28 68.23 223.28C71.9501 224.559 75.8669 225.172 79.8 225.09C84.6188 224.743 89.3993 223.987 94.09 222.83" fill="white"/>
<path d="M78.84 225.61C75.17 225.574 71.5299 224.946 68.06 223.75L68 223.7C67.75 223.54 61.81 219.8 60.21 218.19C58.8 216.78 52.28 206.76 52.81 204.13C52.8586 203.735 53.0149 203.361 53.2618 203.049C53.5087 202.737 53.8368 202.498 54.21 202.36C54.8649 202.22 55.5437 202.238 56.1904 202.412C56.8372 202.586 57.4334 202.911 57.93 203.36C59.21 204.43 67.02 214.09 68.45 215.87C71.68 214.87 89.03 209.72 92.81 212.17C96.59 214.62 97.9 216.56 97.95 216.63C97.9863 216.685 98.0109 216.748 98.0225 216.813C98.0341 216.878 98.0324 216.945 98.0174 217.009C98.0025 217.074 97.9746 217.134 97.9355 217.188C97.8964 217.241 97.8469 217.286 97.79 217.32C97.7354 217.356 97.674 217.381 97.6096 217.392C97.5452 217.404 97.4792 217.402 97.4155 217.387C97.3518 217.372 97.2918 217.344 97.2393 217.305C97.1868 217.266 97.1428 217.217 97.11 217.16C95.7579 215.484 94.1066 214.074 92.24 213C89.24 211.05 74 215.16 68.39 216.91C68.2943 216.941 68.1916 216.942 68.0953 216.913C67.999 216.885 67.9135 216.828 67.85 216.75C64.65 212.75 58.31 204.99 57.26 204.12C56.8965 203.778 56.4601 203.523 55.9838 203.374C55.5075 203.225 55.0036 203.186 54.51 203.26C54.3064 203.344 54.1292 203.481 53.9972 203.657C53.8652 203.833 53.7832 204.041 53.76 204.26C53.38 206.14 59.15 215.68 60.88 217.41C62.34 218.87 67.88 222.41 68.46 222.76C72.1086 223.989 75.9406 224.584 79.79 224.52C84.5793 224.192 89.3326 223.463 94 222.34C94.1326 222.308 94.2724 222.33 94.3887 222.402C94.505 222.473 94.5882 222.587 94.62 222.72C94.6518 222.853 94.6297 222.992 94.5584 223.109C94.4871 223.225 94.3726 223.308 94.24 223.34C89.5163 224.505 84.7024 225.267 79.85 225.62C79.49 225.61 79.16 225.61 78.84 225.61Z" fill="#263238"/>
<path d="M121.52 240.14L113.35 225.69L93.56 237.63L98.58 249.89L121.52 240.14Z" fill="white"/>
<path d="M98.58 250.39C98.517 250.399 98.453 250.399 98.39 250.39C98.2684 250.338 98.1716 250.242 98.12 250.12L93.12 237.86C93.0767 237.748 93.074 237.625 93.1124 237.512C93.1508 237.399 93.2278 237.302 93.33 237.24L113.12 225.3C113.182 225.273 113.248 225.26 113.315 225.26C113.382 225.26 113.448 225.273 113.51 225.3C113.639 225.334 113.75 225.416 113.82 225.53L122 239.9C122.027 239.963 122.041 240.031 122.041 240.1C122.041 240.169 122.027 240.237 122 240.3C121.978 240.367 121.941 240.429 121.893 240.481C121.845 240.533 121.786 240.573 121.72 240.6L98.78 250.35C98.7159 250.374 98.6484 250.387 98.58 250.39ZM94.18 237.84L98.85 249.23L120.85 239.9L113.21 226.38L94.18 237.84Z" fill="#263238"/>
<path d="M229.16 237.07L221.45 450.07H165.52L176.83 298.29C176.83 298.29 146.35 331.6 142.89 333.48C139.43 335.36 135.04 329.4 135.04 329.4L93.87 248.63L118.38 235.12L145.38 279.12L149.46 276.29L152.6 277.86C152.6 277.86 180.6 228.53 182.77 227.27C184.94 226.01 195.34 226.64 195.34 226.64L222.34 228.84L231.49 226.84L229.16 237.07Z" fill="#386DF4"/>
<path d="M221.45 450.56H165.52C165.451 450.56 165.382 450.546 165.319 450.518C165.255 450.491 165.198 450.45 165.15 450.4C165.099 450.347 165.059 450.285 165.033 450.216C165.007 450.147 164.996 450.073 165 450L176.2 299.66C170.88 305.46 146.29 332.16 143.11 333.89C139.32 335.96 134.8 329.89 134.61 329.66L93.42 248.86C93.3625 248.743 93.3523 248.608 93.3913 248.483C93.4304 248.358 93.5158 248.254 93.63 248.19L118.14 234.68C118.253 234.619 118.384 234.603 118.508 234.634C118.632 234.666 118.74 234.743 118.81 234.85L145.55 278.4L149.21 275.87C149.286 275.826 149.372 275.803 149.46 275.803C149.548 275.803 149.634 275.826 149.71 275.87L152.43 277.23C156.22 270.55 180.35 228.12 182.55 226.87C184.75 225.62 194.32 226.11 195.4 226.17L222.4 228.37L231.47 226.37C231.551 226.351 231.636 226.352 231.717 226.375C231.797 226.398 231.871 226.441 231.93 226.5C231.989 226.561 232.032 226.636 232.055 226.718C232.078 226.801 232.079 226.887 232.06 226.97L229.7 237.14L222 450.07C221.998 450.139 221.981 450.206 221.952 450.269C221.923 450.331 221.881 450.387 221.83 450.432C221.778 450.478 221.718 450.513 221.653 450.535C221.588 450.557 221.519 450.565 221.45 450.56ZM166.06 449.56H221L228.69 237.05C228.686 237.017 228.686 236.983 228.69 236.95L230.88 227.5L222.51 229.32H222.36L195.36 227.12C192.53 226.95 184.78 226.71 183.08 227.68C181.4 228.82 164.23 258.45 153.08 278.09C153.017 278.202 152.913 278.285 152.79 278.322C152.667 278.359 152.535 278.348 152.42 278.29L149.54 276.85L145.7 279.51C145.644 279.55 145.581 279.578 145.513 279.591C145.446 279.605 145.377 279.605 145.31 279.59C145.244 279.575 145.181 279.547 145.126 279.508C145.071 279.468 145.025 279.418 144.99 279.36L118.2 235.78L94.54 248.83L135.48 329.16C135.48 329.16 139.62 334.69 142.65 333.03C145.33 331.57 165.94 309.44 176.46 297.94C176.531 297.863 176.623 297.81 176.726 297.788C176.828 297.767 176.934 297.778 177.03 297.82C177.125 297.863 177.205 297.934 177.258 298.023C177.312 298.112 177.337 298.216 177.33 298.32L166.06 449.56Z" fill="#263238"/>
<path d="M177.14 293.56L179.09 274.16L164.54 311.16L176.83 298.28L177.14 293.56Z" fill="#263238"/>
<path d="M164.54 311.66C164.444 311.66 164.35 311.632 164.27 311.58C164.173 311.518 164.1 311.425 164.063 311.316C164.027 311.206 164.029 311.088 164.07 310.98L178.63 273.98C178.675 273.868 178.757 273.776 178.863 273.719C178.969 273.662 179.092 273.645 179.21 273.67C179.328 273.698 179.432 273.769 179.502 273.868C179.572 273.968 179.603 274.089 179.59 274.21L177.59 293.61L177.28 298.31C177.271 298.427 177.221 298.536 177.14 298.62L164.9 311.5C164.855 311.551 164.799 311.591 164.737 311.619C164.675 311.646 164.608 311.66 164.54 311.66ZM178.23 277.66L165.94 309L176.34 298.09L176.64 293.56L178.23 277.66Z" fill="#263238"/>
<path d="M175.57 280.24C175.45 280.239 175.335 280.195 175.245 280.116C175.155 280.037 175.097 279.928 175.08 279.81C174.76 277.62 172.65 248.04 172.56 246.81C172.555 246.744 172.564 246.678 172.585 246.616C172.606 246.554 172.639 246.496 172.682 246.446C172.769 246.346 172.892 246.284 173.025 246.275C173.158 246.266 173.288 246.31 173.389 246.397C173.489 246.484 173.551 246.607 173.56 246.74C173.56 247.05 175.76 277.54 176.07 279.74C176.087 279.871 176.051 280.004 175.971 280.109C175.89 280.214 175.771 280.283 175.64 280.3L175.57 280.24Z" fill="#263238"/>
<path d="M173.06 291.55C172.94 291.552 172.824 291.51 172.732 291.433C172.64 291.356 172.579 291.248 172.56 291.13L169.11 269.13C169.099 269.066 169.1 269 169.115 268.936C169.129 268.872 169.156 268.812 169.195 268.759C169.233 268.705 169.281 268.66 169.337 268.626C169.393 268.592 169.455 268.57 169.52 268.56C169.652 268.54 169.788 268.573 169.896 268.651C170.005 268.73 170.078 268.848 170.1 268.98L173.55 290.98C173.561 291.045 173.56 291.111 173.545 291.174C173.531 291.238 173.503 291.298 173.465 291.352C173.427 291.405 173.379 291.45 173.323 291.484C173.267 291.518 173.205 291.54 173.14 291.55H173.06Z" fill="#263238"/>
<path d="M136.92 299.09C136.848 299.109 136.772 299.109 136.7 299.09C136.583 299.032 136.494 298.93 136.451 298.807C136.408 298.684 136.415 298.548 136.47 298.43L144.64 281.43C144.665 281.366 144.703 281.308 144.752 281.259C144.8 281.211 144.858 281.173 144.922 281.148C144.986 281.122 145.054 281.111 145.123 281.113C145.192 281.116 145.259 281.132 145.321 281.162C145.383 281.191 145.438 281.233 145.483 281.285C145.528 281.337 145.562 281.398 145.582 281.463C145.603 281.529 145.61 281.598 145.603 281.666C145.595 281.734 145.574 281.8 145.54 281.86L137.37 298.86C137.324 298.936 137.257 298.998 137.178 299.039C137.098 299.08 137.009 299.097 136.92 299.09Z" fill="#263238"/>
<path d="M145.72 293.75C145.644 293.749 145.569 293.732 145.5 293.7C145.382 293.64 145.293 293.536 145.25 293.412C145.207 293.287 145.214 293.15 145.27 293.03L151.87 279.83C151.899 279.771 151.939 279.718 151.988 279.675C152.038 279.631 152.096 279.598 152.158 279.578C152.221 279.557 152.287 279.55 152.352 279.555C152.418 279.561 152.482 279.579 152.54 279.61C152.599 279.639 152.652 279.679 152.696 279.728C152.739 279.778 152.773 279.835 152.794 279.897C152.815 279.96 152.824 280.025 152.82 280.091C152.816 280.157 152.799 280.221 152.77 280.28L146.17 293.47C146.129 293.554 146.065 293.625 145.985 293.675C145.906 293.724 145.814 293.75 145.72 293.75Z" fill="#263238"/>
<path d="M218.94 335.54C218.837 335.543 218.735 335.513 218.65 335.453C218.566 335.394 218.502 335.308 218.47 335.21C213.64 321.7 210 300.77 207.79 285.58C207.773 285.45 207.807 285.319 207.886 285.214C207.964 285.11 208.081 285.04 208.21 285.02C208.341 285.003 208.473 285.037 208.58 285.115C208.686 285.193 208.758 285.31 208.78 285.44C210.98 300.58 214.61 321.44 219.41 334.88C219.432 334.942 219.441 335.007 219.437 335.072C219.434 335.138 219.417 335.202 219.388 335.26C219.359 335.319 219.319 335.371 219.269 335.414C219.22 335.457 219.162 335.49 219.1 335.51C219.049 335.53 218.995 335.54 218.94 335.54Z" fill="#263238"/>
<path d="M207.3 278.9C207.179 278.899 207.063 278.855 206.971 278.777C206.88 278.698 206.819 278.589 206.8 278.47C206.2 273.91 205.87 271.02 205.87 271C205.86 270.907 205.877 270.812 205.917 270.728C205.958 270.643 206.021 270.571 206.1 270.52L217.58 263.05L203.46 260.75C203.372 260.737 203.289 260.7 203.221 260.644C203.152 260.588 203.1 260.514 203.07 260.43C203.04 260.346 203.032 260.256 203.048 260.168C203.064 260.08 203.103 259.998 203.16 259.93C203.16 259.93 206.32 256.13 209.41 251.49C212.5 246.85 222.5 231.49 222.6 231.39C222.674 231.278 222.788 231.2 222.919 231.172C223.05 231.143 223.187 231.168 223.3 231.24C223.41 231.313 223.486 231.427 223.512 231.556C223.538 231.685 223.512 231.82 223.44 231.93C223.34 232.09 213.35 247.39 210.24 252.05C207.89 255.57 205.52 258.6 204.47 259.9L219 262.28C219.1 262.296 219.192 262.342 219.265 262.411C219.339 262.481 219.389 262.571 219.41 262.67C219.429 262.769 219.418 262.871 219.379 262.963C219.339 263.056 219.274 263.135 219.19 263.19L206.88 271.19C206.98 272.04 207.28 274.64 207.77 278.34C207.787 278.471 207.751 278.604 207.671 278.709C207.59 278.814 207.471 278.883 207.34 278.9H207.3Z" fill="#263238"/>
<path d="M393.73 228.27C393.73 228.27 400.53 214.43 403.94 209.9C407.35 205.37 410.74 202.64 414.6 201.96C418.46 201.28 421.17 201.51 424.12 200.37C427.07 199.23 432.97 197.65 434.56 195.61C436.15 193.57 439.09 194.93 437.73 198.33C436.37 201.73 431.61 204 431.61 204L427.75 205.81C427.75 205.81 440.23 207.63 441.13 208.31C442.03 208.99 452.93 209.9 452.93 209.9C452.93 209.9 448.16 218.29 441.36 222.15C434.56 226.01 413.24 222.83 413.24 222.83L406.89 236.21L393.73 228.27Z" fill="white"/>
<path d="M406.88 236.71C406.792 236.707 406.707 236.683 406.63 236.64L393.47 228.7C393.364 228.634 393.287 228.531 393.252 228.411C393.217 228.291 393.227 228.163 393.28 228.05C393.56 227.48 400.15 214.12 403.54 209.6C407.19 204.73 410.68 202.14 414.54 201.47C415.99 201.21 417.26 201.08 418.48 200.96C420.35 200.864 422.198 200.507 423.97 199.9C424.64 199.65 425.45 199.37 426.33 199.07C429.17 198.07 433.05 196.77 434.19 195.3C434.529 194.783 435.047 194.409 435.645 194.25C436.243 194.091 436.879 194.159 437.43 194.44C438.34 194.96 439.1 196.34 438.23 198.52C436.81 202.06 432.05 204.36 431.85 204.45L429.49 205.56C433.41 206.15 440.66 207.31 441.49 207.91C442.1 208.29 447.84 208.97 453.03 209.4C453.114 209.405 453.195 209.432 453.265 209.478C453.336 209.523 453.394 209.586 453.433 209.661C453.472 209.735 453.491 209.818 453.489 209.902C453.487 209.986 453.463 210.068 453.42 210.14C453.23 210.49 448.51 218.7 441.67 222.58C435.21 226.24 416.55 223.79 413.59 223.37L407.4 236.37C407.369 236.434 407.326 236.491 407.273 236.537C407.22 236.583 407.157 236.618 407.09 236.64L406.88 236.71ZM394.38 228.08L406.67 235.49L412.78 222.61C412.827 222.513 412.904 222.434 413 222.384C413.095 222.334 413.203 222.315 413.31 222.33C413.52 222.33 434.54 225.44 441.11 221.71C446.6 218.6 450.8 212.38 452.11 210.33C448.9 210.05 441.73 209.33 440.86 208.71C440.22 208.3 433.6 207.17 427.71 206.31C427.604 206.296 427.505 206.247 427.429 206.171C427.353 206.095 427.304 205.996 427.29 205.89C427.273 205.783 427.291 205.674 427.342 205.578C427.392 205.483 427.472 205.406 427.57 205.36L431.42 203.55C431.47 203.55 436.03 201.32 437.3 198.14C437.93 196.56 437.5 195.63 436.94 195.3C436.589 195.137 436.19 195.11 435.821 195.225C435.451 195.339 435.137 195.587 434.94 195.92C433.62 197.62 429.73 198.92 426.61 200.02C425.75 200.31 424.95 200.59 424.29 200.84C422.434 201.476 420.499 201.853 418.54 201.96C417.34 202.08 416.09 202.2 414.67 202.45C411.11 203.08 407.82 205.54 404.33 210.2C401.33 214.21 395.54 225.75 394.38 228.08Z" fill="#263238"/>
<path d="M457.22 207.66C457.22 207.66 460.72 200.21 460.43 198.6C460.14 196.99 457.07 198.02 456.05 200.21C455.03 202.4 451.52 207.66 451.52 207.66H457.22Z" fill="white"/>
<path d="M457.22 208.16H451.52C451.429 208.157 451.341 208.131 451.264 208.083C451.187 208.036 451.123 207.969 451.08 207.89C451.031 207.814 451.005 207.725 451.005 207.635C451.005 207.545 451.031 207.456 451.08 207.38C451.08 207.38 454.57 202.13 455.57 199.99C455.919 199.216 456.48 198.555 457.187 198.085C457.895 197.614 458.721 197.353 459.57 197.33C459.884 197.354 460.181 197.483 460.411 197.698C460.642 197.912 460.793 198.199 460.84 198.51C461.15 200.19 458.19 206.6 457.59 207.87C457.556 207.944 457.505 208.01 457.44 208.06C457.376 208.111 457.3 208.145 457.22 208.16ZM452.45 207.16H456.9C458.23 204.3 460.12 199.71 459.9 198.69C459.9 198.52 459.8 198.36 459.48 198.32C458.838 198.369 458.22 198.589 457.692 198.959C457.164 199.328 456.746 199.833 456.48 200.42C455.251 202.733 453.906 204.983 452.45 207.16Z" fill="#263238"/>
<path d="M463.43 204.11C463.43 204.11 457.99 215.68 454.36 218.85C450.73 222.02 443.47 222.26 443.47 222.26C443.47 222.26 452.09 213.18 453.91 209.78C455.73 206.38 462.3 198.21 463.43 204.11Z" fill="white"/>
<path d="M443.47 222.76C443.374 222.758 443.281 222.729 443.201 222.676C443.121 222.623 443.058 222.548 443.02 222.46C442.98 222.37 442.967 222.269 442.983 222.172C442.999 222.074 443.043 221.983 443.11 221.91C443.2 221.82 451.71 212.85 453.47 209.55C454.82 207.02 459.19 201.11 462.01 201.55C463.01 201.7 463.64 202.55 463.92 204.02C463.95 204.118 463.95 204.222 463.92 204.32C463.69 204.8 458.39 216.02 454.72 219.23C451.05 222.44 443.82 222.75 443.52 222.76H443.47ZM461.68 202.53C459.68 202.53 455.77 207.36 454.35 210.02C452.93 212.68 446.98 219.24 444.72 221.66C446.92 221.44 451.47 220.72 454.03 218.48C457.32 215.6 462.26 205.41 462.91 204.05C462.71 203.12 462.35 202.62 461.86 202.54L461.68 202.53Z" fill="#263238"/>
<path d="M459.05 205.13C459.05 205.13 453.61 216.7 449.98 219.88C446.35 223.06 439.09 223.28 439.09 223.28C439.09 223.28 447.71 214.21 449.53 210.8C451.35 207.39 457.92 199.24 459.05 205.13Z" fill="white"/>
<path d="M439.09 223.78C438.994 223.778 438.901 223.749 438.821 223.696C438.741 223.643 438.678 223.568 438.64 223.48C438.597 223.392 438.582 223.292 438.598 223.196C438.614 223.099 438.66 223.009 438.73 222.94C438.82 222.84 447.32 213.87 449.08 210.57C450.43 208.04 454.78 202.14 457.62 202.57C458.62 202.72 459.26 203.57 459.54 205.03C459.574 205.131 459.574 205.24 459.54 205.34C459.32 205.81 454.01 217.04 450.35 220.24C446.69 223.44 439.45 223.76 439.15 223.77L439.09 223.78ZM457.3 203.55C455.25 203.55 451.38 208.38 449.97 211.04C448.47 213.85 442.6 220.26 440.34 222.68C442.54 222.46 447.09 221.74 449.65 219.5C452.94 216.62 457.88 206.43 458.53 205.07C458.33 204.15 457.97 203.64 457.47 203.57L457.3 203.55Z" fill="#263238"/>
<path d="M409.83 216.93C409.83 216.93 410.97 215.11 414.83 212.62C418.69 210.13 439.1 216.47 439.1 216.47C439.1 216.47 448.4 204.91 449.76 203.77C451.12 202.63 453.62 201.96 454.07 204.23C454.52 206.5 448.4 216.23 446.81 217.84C445.22 219.45 439.1 223.28 439.1 223.28C435.38 224.559 431.463 225.172 427.53 225.09C422.714 224.744 417.937 223.988 413.25 222.83" fill="white"/>
<path d="M428.5 225.61C428.17 225.61 427.84 225.61 427.5 225.61C422.647 225.258 417.834 224.496 413.11 223.33C412.977 223.298 412.863 223.215 412.792 223.099C412.72 222.982 412.698 222.843 412.73 222.71C412.762 222.577 412.845 222.463 412.961 222.392C413.078 222.32 413.217 222.298 413.35 222.33C418.005 223.477 422.749 224.229 427.53 224.58C431.38 224.651 435.213 224.055 438.86 222.82C439.42 222.46 444.98 218.93 446.44 217.47C448.17 215.74 453.94 206.2 453.56 204.32C453.539 204.101 453.458 203.891 453.326 203.715C453.193 203.538 453.015 203.402 452.81 203.32C452.316 203.247 451.813 203.286 451.337 203.435C450.86 203.584 450.424 203.839 450.06 204.18C449.06 205.05 442.68 212.82 439.47 216.81C439.406 216.888 439.321 216.945 439.225 216.973C439.128 217.002 439.026 217.001 438.93 216.97C433.32 215.23 418.09 211.12 415.08 213.06C411.4 215.44 410.26 217.2 410.25 217.21C410.18 217.323 410.068 217.403 409.938 217.433C409.809 217.463 409.673 217.44 409.56 217.37C409.447 217.3 409.367 217.188 409.337 217.058C409.307 216.929 409.33 216.793 409.4 216.68C409.4 216.61 410.64 214.75 414.54 212.22C418.44 209.69 435.67 214.92 438.91 215.92C440.34 214.14 448.14 204.48 449.42 203.41C449.918 202.964 450.515 202.64 451.161 202.467C451.807 202.293 452.485 202.274 453.14 202.41C453.514 202.546 453.844 202.784 454.091 203.097C454.338 203.409 454.494 203.784 454.54 204.18C455.07 206.81 448.54 216.83 447.15 218.24C445.54 219.85 439.6 223.59 439.35 223.75L439.26 223.8C435.794 224.979 432.161 225.59 428.5 225.61Z" fill="#263238"/>
<path d="M385.81 240.14L393.98 225.69L413.78 237.63L408.75 249.89L385.81 240.14Z" fill="white"/>
<path d="M408.75 250.39C408.684 250.399 408.616 250.399 408.55 250.39L385.61 240.64C385.545 240.614 385.486 240.574 385.439 240.522C385.393 240.47 385.359 240.408 385.34 240.34C385.311 240.277 385.295 240.209 385.295 240.14C385.295 240.071 385.311 240.003 385.34 239.94L393.51 225.48C393.58 225.366 393.691 225.284 393.82 225.25C393.882 225.223 393.948 225.21 394.015 225.21C394.082 225.21 394.148 225.223 394.21 225.25L414 237.2C414.1 237.264 414.175 237.361 414.212 237.474C414.248 237.587 414.244 237.71 414.2 237.82L409.2 250.08C409.148 250.202 409.052 250.298 408.93 250.35C408.872 250.372 408.812 250.385 408.75 250.39ZM386.52 239.9L408.52 249.23L413.19 237.84L394.19 226.38L386.52 239.9Z" fill="#263238"/>
<path d="M278.17 237.07L285.88 450.07H341.82L330.5 298.28C330.5 298.28 360.98 331.59 364.44 333.47C367.9 335.35 372.3 329.39 372.3 329.39L413.46 248.63L389 235.12L362 279.12L357.91 276.29L354.77 277.86C354.77 277.86 326.77 228.53 324.6 227.27C322.43 226.01 312.03 226.64 312.03 226.64L285.03 228.84L275.03 226.84L278.17 237.07Z" fill="#386DF4"/>
<path d="M341.82 450.56H285.88C285.75 450.558 285.626 450.505 285.533 450.414C285.44 450.323 285.385 450.2 285.38 450.07L277.67 237.15L274.43 227C274.404 226.916 274.401 226.826 274.42 226.741C274.44 226.655 274.481 226.575 274.54 226.51C274.598 226.445 274.671 226.396 274.754 226.368C274.836 226.34 274.925 226.333 275.01 226.35L285.01 228.35L311.96 226.15C313.05 226.09 322.56 225.55 324.82 226.85C327.08 228.15 351.15 270.53 354.94 277.21L357.66 275.85C357.738 275.806 357.826 275.783 357.915 275.783C358.004 275.783 358.092 275.806 358.17 275.85L361.82 278.38L388.57 234.83C388.638 234.724 388.744 234.647 388.867 234.615C388.989 234.584 389.119 234.6 389.23 234.66L413.74 248.17C413.854 248.234 413.94 248.338 413.979 248.463C414.018 248.588 414.007 248.723 413.95 248.84L372.78 329.6C372.55 329.92 368.04 335.97 364.24 333.89C361.07 332.16 336.48 305.46 331.15 299.66L342.32 450C342.324 450.07 342.314 450.139 342.29 450.205C342.266 450.27 342.229 450.33 342.18 450.38C342.137 450.434 342.082 450.479 342.02 450.51C341.958 450.541 341.889 450.558 341.82 450.56ZM286.36 449.56H341.28L330 298.32C329.992 298.215 330.018 298.109 330.074 298.02C330.129 297.93 330.212 297.86 330.31 297.82C330.404 297.777 330.509 297.766 330.61 297.787C330.711 297.809 330.802 297.863 330.87 297.94C341.4 309.44 362 331.57 364.68 333C367.68 334.66 371.85 329.12 371.9 329.06L412.8 248.8L389.13 235.75L362.35 279.34C362.316 279.399 362.27 279.45 362.215 279.489C362.16 279.529 362.097 279.557 362.03 279.57C361.963 279.585 361.894 279.585 361.826 279.571C361.759 279.558 361.696 279.53 361.64 279.49L357.8 276.83L354.92 278.27C354.807 278.327 354.676 278.338 354.555 278.301C354.433 278.264 354.331 278.181 354.27 278.07C343.13 258.43 325.96 228.8 324.27 227.66C322.58 226.66 314.83 226.93 311.98 227.1L284.98 229.3H284.84L275.64 227.48L278.64 236.9C278.646 236.943 278.646 236.987 278.64 237.03L286.36 449.56Z" fill="#263238"/>
<path d="M330.5 298.28L330.12 282.95L342.25 310.25L330.5 298.28Z" fill="#263238"/>
<path d="M342.25 310.75C342.184 310.751 342.119 310.738 342.059 310.712C341.999 310.686 341.945 310.648 341.9 310.6L330.15 298.6C330.061 298.509 330.007 298.388 330 298.26L329.62 283C329.619 282.885 329.657 282.773 329.728 282.682C329.799 282.591 329.898 282.527 330.01 282.5C330.123 282.471 330.242 282.484 330.346 282.535C330.451 282.586 330.534 282.673 330.58 282.78L342.71 310.08C342.757 310.186 342.765 310.306 342.732 310.418C342.699 310.53 342.628 310.626 342.53 310.69C342.445 310.739 342.347 310.76 342.25 310.75ZM331 298.07L340.67 307.93L330.67 285.45L331 298.07Z" fill="#263238"/>
<path d="M330.19 294.06C330.064 294.06 329.943 294.013 329.85 293.928C329.757 293.843 329.7 293.726 329.69 293.6L326.86 252.12C326.855 252.054 326.864 251.988 326.885 251.926C326.906 251.864 326.939 251.806 326.982 251.756C327.025 251.707 327.077 251.666 327.136 251.636C327.195 251.607 327.259 251.59 327.325 251.585C327.391 251.58 327.457 251.589 327.519 251.61C327.581 251.631 327.639 251.664 327.689 251.707C327.738 251.75 327.779 251.802 327.809 251.861C327.838 251.92 327.855 251.984 327.86 252.05L330.69 293.53C330.694 293.596 330.685 293.662 330.664 293.724C330.642 293.786 330.609 293.843 330.565 293.893C330.521 293.942 330.468 293.982 330.409 294.011C330.35 294.039 330.286 294.056 330.22 294.06H330.19Z" fill="#263238"/>
<path d="M331.76 280.24H331.69C331.561 280.22 331.444 280.15 331.366 280.046C331.287 279.941 331.253 279.81 331.27 279.68C331.57 277.52 333.08 260.12 333.09 259.95C333.107 259.818 333.174 259.698 333.275 259.613C333.377 259.528 333.507 259.484 333.64 259.49C333.771 259.503 333.892 259.567 333.976 259.668C334.06 259.769 334.101 259.899 334.09 260.03C334.03 260.75 332.57 277.63 332.26 279.82C332.239 279.937 332.177 280.044 332.086 280.121C331.995 280.197 331.879 280.24 331.76 280.24Z" fill="#263238"/>
<path d="M334.28 291.55H334.2C334.134 291.542 334.071 291.52 334.014 291.486C333.957 291.453 333.907 291.408 333.868 291.355C333.829 291.301 333.801 291.241 333.786 291.176C333.771 291.112 333.769 291.045 333.78 290.98L337.24 268.98C337.25 268.914 337.272 268.851 337.307 268.794C337.341 268.738 337.386 268.688 337.439 268.648C337.493 268.609 337.553 268.58 337.618 268.564C337.682 268.548 337.749 268.545 337.815 268.555C337.881 268.565 337.944 268.588 338.001 268.622C338.057 268.656 338.107 268.701 338.147 268.755C338.186 268.808 338.215 268.869 338.231 268.933C338.247 268.997 338.25 269.064 338.24 269.13L334.78 291.13C334.763 291.249 334.702 291.358 334.61 291.435C334.518 291.513 334.4 291.554 334.28 291.55Z" fill="#263238"/>
<path d="M363.83 291.22C363.712 291.217 363.599 291.174 363.51 291.097C363.421 291.021 363.361 290.916 363.34 290.8L361.75 281.71C361.739 281.644 361.741 281.577 361.755 281.512C361.77 281.447 361.798 281.386 361.836 281.332C361.875 281.277 361.924 281.231 361.98 281.196C362.036 281.16 362.099 281.136 362.165 281.125C362.231 281.114 362.298 281.116 362.363 281.131C362.428 281.145 362.489 281.173 362.543 281.211C362.598 281.25 362.644 281.299 362.679 281.355C362.715 281.412 362.739 281.474 362.75 281.54L364.35 290.63C364.37 290.761 364.339 290.895 364.263 291.003C364.186 291.111 364.07 291.186 363.94 291.21L363.83 291.22Z" fill="#263238"/>
<path d="M354.91 286.76C354.779 286.753 354.656 286.696 354.565 286.601C354.474 286.507 354.422 286.381 354.42 286.25L354.52 280.04C354.534 279.911 354.592 279.792 354.686 279.702C354.779 279.613 354.901 279.559 355.03 279.55C355.096 279.551 355.16 279.566 355.221 279.592C355.281 279.618 355.335 279.656 355.381 279.704C355.426 279.751 355.462 279.807 355.486 279.868C355.51 279.929 355.521 279.994 355.52 280.06L355.42 286.26C355.42 286.327 355.407 286.392 355.381 286.454C355.355 286.515 355.318 286.571 355.27 286.617C355.223 286.664 355.166 286.7 355.104 286.725C355.043 286.749 354.976 286.761 354.91 286.76Z" fill="#263238"/>
<path d="M288.4 335.54C288.344 335.555 288.286 335.555 288.23 335.54C288.106 335.497 288.004 335.406 287.946 335.289C287.888 335.171 287.879 335.035 287.92 334.91C288.68 332.79 289.44 330.39 290.18 327.77C290.198 327.704 290.228 327.643 290.27 327.589C290.311 327.535 290.363 327.49 290.422 327.456C290.481 327.422 290.546 327.4 290.613 327.391C290.681 327.383 290.749 327.387 290.815 327.405C290.881 327.423 290.942 327.453 290.996 327.495C291.05 327.536 291.095 327.588 291.129 327.647C291.163 327.706 291.185 327.771 291.194 327.838C291.202 327.906 291.198 327.974 291.18 328.04C290.43 330.68 289.66 333.11 288.9 335.24C288.859 335.336 288.788 335.417 288.698 335.47C288.609 335.524 288.504 335.549 288.4 335.54Z" fill="#263238"/>
<path d="M292 323.59H291.87C291.743 323.557 291.635 323.476 291.568 323.363C291.5 323.251 291.48 323.117 291.51 322.99C296.83 301.99 300.11 274.42 300.51 271.21L288.2 263.21C288.116 263.155 288.051 263.076 288.013 262.983C287.976 262.89 287.968 262.788 287.99 262.69C288.008 262.591 288.056 262.501 288.127 262.431C288.199 262.361 288.291 262.315 288.39 262.3L302.94 259.92C301.94 258.62 299.52 255.59 297.17 252.07C294.06 247.41 284.07 232.07 283.97 231.95C283.907 231.839 283.888 231.708 283.919 231.583C283.949 231.459 284.026 231.351 284.134 231.282C284.242 231.212 284.372 231.187 284.498 231.211C284.623 231.235 284.735 231.306 284.81 231.41C284.91 231.56 294.9 246.86 298 251.51C301.1 256.16 304.23 259.92 304.26 259.95C304.314 260.02 304.35 260.103 304.364 260.19C304.378 260.277 304.369 260.367 304.34 260.45C304.31 260.534 304.258 260.608 304.189 260.664C304.121 260.72 304.038 260.757 303.95 260.77L289.83 263.07L301.32 270.54C301.398 270.592 301.46 270.664 301.499 270.749C301.537 270.833 301.552 270.927 301.54 271.02C301.54 271.31 298.16 300.92 292.54 323.23C292.508 323.344 292.435 323.444 292.336 323.51C292.237 323.576 292.118 323.604 292 323.59Z" fill="#263238"/>
<path d="M231.2 207.16L231.29 228.53L255.9 243.41L275.84 229.59L274 205.35C274 205.35 258.59 215.35 256.55 215.77C254.51 216.19 231.2 207.16 231.2 207.16Z" fill="white"/>
<path d="M255.9 243.91C255.808 243.912 255.718 243.888 255.64 243.84L231 229C230.926 228.954 230.865 228.891 230.821 228.816C230.778 228.741 230.753 228.657 230.75 228.57L230.66 207.2C230.662 207.119 230.683 207.04 230.721 206.969C230.759 206.898 230.814 206.837 230.88 206.791C230.946 206.745 231.023 206.716 231.103 206.705C231.183 206.695 231.264 206.703 231.34 206.73C240.34 210.21 255 215.61 256.43 215.32C257.86 215.03 267.55 208.95 273.72 204.97C273.794 204.926 273.879 204.903 273.965 204.903C274.051 204.903 274.136 204.926 274.21 204.97C274.288 205.009 274.354 205.067 274.403 205.139C274.452 205.21 274.482 205.293 274.49 205.38L276.3 229.62C276.306 229.708 276.289 229.796 276.25 229.875C276.212 229.954 276.153 230.021 276.08 230.07L256.15 243.89C256.07 243.917 255.984 243.924 255.9 243.91ZM231.79 228.25L255.88 242.82L275.32 229.34L273.59 206.22C270.31 208.34 258.59 215.84 256.69 216.22C254.79 216.6 236.82 209.83 231.69 207.85L231.79 228.25Z" fill="#263238"/>
<path d="M231.54 224.44L254.91 218.65L231.29 209.01L231.54 224.44Z" fill="#263238"/>
<path d="M231.54 224.93C231.428 224.932 231.319 224.897 231.23 224.83C231.17 224.784 231.122 224.725 231.089 224.657C231.057 224.59 231.04 224.515 231.04 224.44L230.79 209C230.79 208.917 230.81 208.836 230.848 208.763C230.887 208.69 230.942 208.627 231.01 208.58C231.082 208.541 231.163 208.52 231.245 208.52C231.327 208.52 231.408 208.541 231.48 208.58L255.1 218.22C255.198 218.26 255.281 218.33 255.336 218.42C255.392 218.509 255.418 218.615 255.41 218.72C255.4 218.825 255.358 218.924 255.29 219.004C255.222 219.084 255.131 219.142 255.03 219.17L231.66 224.95L231.54 224.93ZM231.81 209.76L232.03 223.76L253.3 218.49L231.81 209.76Z" fill="#263238"/>
<path d="M274 180.42C274 180.42 273.77 170.68 276.49 165.24C277.361 163.479 277.814 161.54 277.814 159.575C277.814 157.61 277.361 155.671 276.49 153.91L279 153C277.633 151.856 276.197 150.797 274.7 149.83C274.02 149.6 275.15 143.49 273.11 140.31C271.07 137.13 269.03 136.46 269.03 136.46L267.9 140.54C267.9 140.54 261.78 133.29 258.38 131.93C254.98 130.57 245.25 124 245 127.4C244.75 130.8 246.14 132.16 246.14 132.16C246.14 132.16 239.34 128.3 234.14 129.66C228.94 131.02 223.94 134.2 225.07 135.33C226.2 136.46 231.19 141.22 231.19 141.22C231.19 141.22 219.64 141.67 218.28 143.03C217.367 144.087 216.686 145.324 216.28 146.66L222.85 150.06C222.85 150.06 216.96 149.6 214.69 153.23C212.42 156.86 211.97 158.23 213.56 158.89C215.131 159.691 216.645 160.6 218.09 161.61C218.09 161.61 216.5 164.33 218.32 168.86C220.14 173.39 224.43 183.37 224.43 183.37C224.43 183.37 226.02 167.05 227.15 163.88C228.28 160.71 242.34 153.23 244.37 152.55C246.4 151.87 260.69 155.72 261.6 155.72C262.51 155.72 268.39 178.61 269.75 179.51C271.11 180.41 274 180.42 274 180.42Z" fill="#263238"/>
<path d="M224.4 183.87C224.303 183.868 224.209 183.837 224.129 183.782C224.049 183.727 223.987 183.65 223.95 183.56C223.95 183.46 219.62 173.56 217.82 169.05C216.33 165.33 217.04 162.76 217.43 161.79C216.123 160.881 214.753 160.065 213.33 159.35C213.063 159.26 212.82 159.11 212.62 158.913C212.419 158.715 212.265 158.475 212.17 158.21C211.83 157.12 212.6 155.59 214.24 152.96C215.78 150.49 218.81 149.78 220.84 149.6L216 147.1C215.895 147.05 215.812 146.964 215.766 146.857C215.72 146.75 215.714 146.631 215.75 146.52C216.187 145.1 216.924 143.791 217.91 142.68C219.15 141.44 226.71 140.94 229.99 140.77C228.52 139.36 225.55 136.52 224.71 135.68C224.569 135.548 224.469 135.377 224.423 135.189C224.376 135 224.386 134.803 224.45 134.62C224.94 132.81 229.9 130.25 234 129.18C237.92 128.18 242.6 129.92 244.93 130.99C244.541 129.825 244.395 128.593 244.5 127.37C244.502 127.121 244.569 126.877 244.696 126.663C244.822 126.449 245.003 126.272 245.22 126.15C246.73 125.32 250.14 127.03 254.79 129.55C256.27 130.35 257.67 131.11 258.56 131.47C261.43 132.61 266 137.62 267.66 139.47L268.54 136.29C268.559 136.224 268.591 136.163 268.634 136.11C268.677 136.057 268.73 136.013 268.79 135.98C268.851 135.951 268.917 135.936 268.985 135.936C269.052 135.936 269.119 135.951 269.18 135.98C269.27 135.98 271.41 136.75 273.52 139.98C274.89 142.11 274.91 145.4 274.92 147.58C274.906 148.174 274.933 148.769 275 149.36C276.499 150.336 277.938 151.402 279.31 152.55C279.379 152.608 279.432 152.682 279.463 152.766C279.495 152.85 279.504 152.941 279.49 153.03C279.473 153.116 279.433 153.197 279.375 153.264C279.317 153.33 279.243 153.381 279.16 153.41L277.16 154.13C277.959 155.909 278.351 157.843 278.31 159.792C278.268 161.741 277.794 163.657 276.92 165.4C274.29 170.67 274.48 180.25 274.48 180.35C274.48 180.485 274.426 180.615 274.33 180.71C274.285 180.758 274.231 180.796 274.171 180.822C274.111 180.848 274.046 180.861 273.98 180.86C273.85 180.86 270.86 180.86 269.4 179.86C268.66 179.37 267.58 176.11 264.71 166.56C263.42 162.29 261.84 157.02 261.3 156.13C260.84 156.07 259.83 155.83 257.67 155.33C253.8 154.42 245.75 152.52 244.45 152.95C242.33 153.66 228.57 161.09 227.54 163.95C226.45 167.03 224.87 183.15 224.85 183.31C224.84 183.421 224.794 183.526 224.717 183.607C224.641 183.689 224.54 183.743 224.43 183.76L224.4 183.87ZM222.22 150.54C220.74 150.54 216.77 150.8 215.08 153.54C213.75 155.68 212.9 157.25 213.08 157.96C213.08 158.09 213.23 158.29 213.69 158.49C215.29 159.3 216.831 160.222 218.3 161.25C218.406 161.321 218.48 161.431 218.508 161.555C218.536 161.68 218.515 161.81 218.45 161.92C218.45 161.92 217.02 164.51 218.71 168.73C220.04 172.05 222.71 178.37 224.06 181.45C224.52 177.01 225.7 166.33 226.61 163.76C227.88 160.21 242.49 152.68 244.15 152.13C245.59 151.64 251.48 152.96 257.9 154.47C259.63 154.88 261.27 155.26 261.53 155.27C262.19 155.27 262.44 155.65 265.67 166.39C267.22 171.52 269.33 178.53 269.98 179.16C271.074 179.679 272.269 179.953 273.48 179.96C273.48 177.83 273.62 169.89 276.03 165.07C276.856 163.377 277.286 161.519 277.286 159.635C277.286 157.751 276.856 155.893 276.03 154.2C275.995 154.137 275.975 154.067 275.97 153.995C275.965 153.923 275.976 153.85 276.002 153.783C276.027 153.715 276.067 153.654 276.119 153.604C276.17 153.553 276.232 153.514 276.3 153.49L277.96 152.89C276.866 151.965 275.71 151.116 274.5 150.35C273.91 150.16 273.91 149.44 273.89 147.69C273.89 145.63 273.89 142.52 272.65 140.63C271.824 139.244 270.679 138.074 269.31 137.22L268.31 140.72C268.287 140.808 268.24 140.888 268.175 140.951C268.11 141.015 268.029 141.059 267.94 141.08C267.851 141.098 267.758 141.092 267.672 141.062C267.586 141.032 267.509 140.98 267.45 140.91C267.39 140.84 261.37 133.74 258.13 132.44C256.804 131.84 255.509 131.172 254.25 130.44C251.25 128.83 246.79 126.44 245.64 127.03C245.59 127.03 245.46 127.13 245.44 127.44C245.24 130.53 246.44 131.8 246.44 131.82C246.519 131.91 246.563 132.025 246.563 132.145C246.563 132.265 246.519 132.38 246.44 132.47C246.367 132.565 246.262 132.63 246.144 132.654C246.027 132.678 245.905 132.659 245.8 132.6C245.74 132.6 239.12 128.87 234.16 130.16C229.52 131.37 225.6 133.87 225.32 134.9C226.44 136.1 231.39 140.82 231.44 140.9C231.511 140.968 231.56 141.056 231.581 141.152C231.603 141.248 231.595 141.348 231.56 141.439C231.525 141.531 231.463 141.611 231.383 141.668C231.303 141.725 231.208 141.757 231.11 141.76C226.39 141.94 219.37 142.58 218.53 143.43C217.744 144.303 217.139 145.322 216.75 146.43L222.94 149.63C223.041 149.685 223.12 149.771 223.166 149.877C223.211 149.982 223.22 150.099 223.19 150.21C223.157 150.321 223.088 150.417 222.993 150.484C222.899 150.551 222.785 150.585 222.67 150.58C222.67 150.58 222.56 150.54 222.22 150.54Z" fill="#263238"/>
<path d="M236.64 146.89C236.64 146.89 221.46 161.89 221.23 164.33C221 166.77 227.8 205.57 228.23 206.93C228.66 208.29 244.77 218.49 249.75 219.62C254.73 220.75 259.95 219.39 261.31 218.26C262.67 217.13 275.81 209.65 277.17 203.53C278.53 197.41 270 155.72 269 154.14C268 152.56 246.84 142.35 236.64 146.89Z" fill="white"/>
<path d="M253.72 220.54C252.358 220.545 251 220.401 249.67 220.11C244.92 219.03 228.35 208.8 227.78 207.11C227.16 205.25 220.51 166.79 220.73 164.31C220.95 161.83 233.73 149.07 236.29 146.55C236.332 146.506 236.383 146.472 236.44 146.45C246.52 141.97 268.29 151.83 269.44 153.91C270.38 155.55 279.04 197.38 277.65 203.66C276.49 208.89 267.23 214.95 263.28 217.54C262.47 218.07 261.84 218.48 261.62 218.67C260.49 219.62 257.27 220.54 253.72 220.54ZM236.93 147.31C231.1 153.05 221.88 162.7 221.73 164.38C221.53 166.63 228.16 205.07 228.73 206.77C229.43 208.09 244.89 218 249.89 219.13C254.89 220.26 259.81 218.89 261.02 217.88C261.28 217.66 261.87 217.27 262.77 216.68C266.62 214.16 275.64 208.26 276.71 203.42C278.02 197.54 269.51 156.08 268.61 154.42C267.77 153.13 247 143 236.93 147.31Z" fill="#263238"/>
<path d="M236.64 146.89C236.64 146.89 241.9 149.49 244.07 150.46C246.24 151.43 248.64 148.05 248.64 148.05C248.64 148.05 267.27 154.44 269.04 154.14C270.81 153.84 264.04 146.84 257.04 144.19C250.04 141.54 236.68 141.87 236.64 146.89Z" fill="#263238"/>
<path d="M268.94 154.64C266.53 154.64 252.5 149.9 248.82 148.64C248.12 149.5 245.98 151.85 243.82 150.92C241.66 149.99 236.43 147.36 236.38 147.33C236.296 147.289 236.225 147.225 236.175 147.145C236.126 147.066 236.1 146.974 236.1 146.88C236.12 146.29 236.29 145.715 236.592 145.208C236.895 144.701 237.32 144.278 237.83 143.98C241.83 141.27 251.68 141.62 257.22 143.73C263.36 146.06 269.96 152.09 269.78 153.9C269.766 154.082 269.689 154.254 269.564 154.387C269.438 154.52 269.271 154.605 269.09 154.63L268.94 154.64ZM248.64 147.55C248.696 147.54 248.754 147.54 248.81 147.55C255.72 149.92 266.97 153.55 268.81 153.62C268.39 152.25 262.99 146.94 256.91 144.62C251.63 142.62 242.07 142.29 238.45 144.77C238.123 144.959 237.84 145.216 237.619 145.523C237.398 145.829 237.245 146.18 237.17 146.55C238.32 147.11 242.44 149.15 244.28 149.96C245.75 150.61 247.64 148.56 248.28 147.72C248.324 147.668 248.379 147.625 248.442 147.596C248.504 147.567 248.571 147.551 248.64 147.55Z" fill="#263238"/>
<path d="M250.54 189.78C250.41 189.791 250.28 189.791 250.15 189.78L248.88 189.57C247.981 189.717 247.071 189.79 246.16 189.79C245.558 189.749 244.985 189.513 244.529 189.118C244.072 188.723 243.757 188.19 243.63 187.6C243.603 187.472 243.626 187.338 243.695 187.226C243.764 187.114 243.873 187.033 244 187C244.127 186.97 244.261 186.99 244.373 187.058C244.486 187.125 244.567 187.233 244.6 187.36C244.6 187.42 244.99 188.8 246.16 188.8C247.038 188.803 247.915 188.73 248.78 188.58H249L250.36 188.8C251.57 189.01 254.18 187.71 254.36 187.14C254.54 186.57 253.23 180.78 252.36 176.59C251.36 171.67 250.72 168.59 250.72 168C250.72 166.52 253.48 163.49 254.03 162.9C254.125 162.808 254.252 162.756 254.385 162.756C254.518 162.756 254.645 162.808 254.74 162.9C254.787 162.946 254.824 163.002 254.849 163.063C254.875 163.124 254.888 163.189 254.888 163.255C254.888 163.321 254.875 163.386 254.849 163.447C254.824 163.508 254.787 163.564 254.74 163.61C253.48 164.96 251.74 167.23 251.74 168.03C251.74 168.59 252.6 172.75 253.36 176.42C254.97 184.21 255.48 186.89 255.36 187.42C255 188.5 252.14 189.78 250.54 189.78Z" fill="#263238"/>
<path d="M255.57 187.79C255.268 187.787 254.967 187.761 254.67 187.71C254.606 187.697 254.545 187.671 254.49 187.634C254.436 187.598 254.389 187.551 254.353 187.496C254.317 187.441 254.292 187.38 254.279 187.315C254.267 187.251 254.267 187.184 254.28 187.12C254.292 187.055 254.317 186.993 254.353 186.938C254.39 186.883 254.437 186.836 254.492 186.799C254.547 186.763 254.609 186.738 254.674 186.726C254.739 186.714 254.806 186.715 254.87 186.73C255.432 186.855 256.019 186.802 256.55 186.58C256.666 186.496 256.745 186.371 256.77 186.23L256.99 184.87C257.014 184.74 257.089 184.624 257.197 184.547C257.305 184.471 257.439 184.44 257.57 184.46C257.635 184.47 257.697 184.492 257.753 184.526C257.809 184.56 257.857 184.605 257.895 184.659C257.934 184.712 257.961 184.772 257.975 184.836C257.99 184.899 257.991 184.966 257.98 185.03L257.75 186.39C257.717 186.59 257.644 186.782 257.536 186.954C257.428 187.126 257.286 187.274 257.12 187.39C256.654 187.672 256.115 187.812 255.57 187.79Z" fill="#263238"/>
<path d="M248.87 189.53C248.769 189.531 248.671 189.499 248.59 189.44C248.036 189.012 247.632 188.419 247.437 187.747C247.241 187.075 247.263 186.359 247.5 185.7C247.515 185.631 247.544 185.566 247.586 185.509C247.627 185.452 247.681 185.404 247.742 185.369C247.804 185.334 247.872 185.313 247.942 185.306C248.012 185.3 248.083 185.308 248.15 185.331C248.217 185.353 248.278 185.39 248.33 185.438C248.382 185.487 248.423 185.545 248.45 185.61C248.477 185.675 248.491 185.746 248.489 185.816C248.487 185.887 248.471 185.956 248.44 186.02C248.271 186.477 248.251 186.975 248.382 187.443C248.513 187.912 248.789 188.327 249.17 188.63C249.254 188.693 249.316 188.781 249.347 188.881C249.379 188.981 249.378 189.089 249.344 189.188C249.311 189.288 249.247 189.374 249.162 189.436C249.077 189.497 248.975 189.53 248.87 189.53Z" fill="#263238"/>
<path d="M244.8 203.35C244.676 203.35 244.556 203.308 244.46 203.23C244.368 203.135 244.316 203.008 244.316 202.875C244.316 202.743 244.368 202.615 244.46 202.52C244.54 202.43 252.27 193.91 261.11 197.4C261.171 197.424 261.227 197.46 261.274 197.506C261.321 197.552 261.359 197.607 261.385 197.667C261.411 197.727 261.424 197.792 261.425 197.858C261.426 197.924 261.414 197.989 261.39 198.05C261.366 198.111 261.33 198.167 261.284 198.214C261.238 198.261 261.183 198.299 261.123 198.325C261.063 198.351 260.998 198.365 260.932 198.365C260.866 198.366 260.801 198.354 260.74 198.33C252.55 195.1 245.28 203.1 245.21 203.19C245.158 203.246 245.095 203.29 245.024 203.318C244.952 203.345 244.876 203.356 244.8 203.35Z" fill="#263238"/>
<path d="M229.16 172.13C229.04 172.131 228.921 172.107 228.81 172.06C228.564 171.966 228.366 171.779 228.257 171.539C228.149 171.299 228.139 171.027 228.23 170.78C229.296 168.207 231.08 165.996 233.37 164.41C237.19 161.86 243.81 164.88 244.09 165.01C244.209 165.066 244.317 165.145 244.406 165.242C244.495 165.339 244.564 165.453 244.609 165.577C244.654 165.701 244.674 165.833 244.668 165.964C244.663 166.096 244.631 166.226 244.575 166.345C244.519 166.465 244.44 166.572 244.343 166.661C244.246 166.75 244.132 166.819 244.008 166.864C243.884 166.909 243.752 166.929 243.621 166.923C243.489 166.918 243.359 166.886 243.24 166.83C241.62 166.07 236.87 164.47 234.48 166.07C232.545 167.43 231.028 169.304 230.1 171.48C230.028 171.671 229.9 171.836 229.732 171.953C229.564 172.069 229.364 172.131 229.16 172.13Z" fill="#263238"/>
<path d="M268.82 167.83C268.637 167.831 268.458 167.783 268.301 167.689C268.144 167.596 268.016 167.461 267.93 167.3C266.796 165.37 265.066 163.861 263 163C262.109 162.677 261.148 162.593 260.214 162.758C259.281 162.923 258.407 163.331 257.68 163.94C257.582 164.029 257.468 164.098 257.344 164.143C257.22 164.188 257.087 164.208 256.955 164.201C256.823 164.195 256.694 164.162 256.575 164.105C256.455 164.048 256.348 163.969 256.26 163.87C256.083 163.674 255.991 163.415 256.004 163.151C256.017 162.886 256.134 162.638 256.33 162.46C257.33 161.604 258.539 161.029 259.835 160.795C261.13 160.562 262.464 160.677 263.7 161.13C266.223 162.158 268.333 163.994 269.7 166.35C269.763 166.466 269.802 166.594 269.816 166.725C269.829 166.856 269.817 166.989 269.778 167.115C269.74 167.242 269.678 167.36 269.594 167.462C269.51 167.564 269.407 167.648 269.29 167.71C269.146 167.788 268.984 167.829 268.82 167.83Z" fill="#263238"/>
<path d="M239.25 177.93C240.189 177.93 240.95 176.864 240.95 175.55C240.95 174.236 240.189 173.17 239.25 173.17C238.311 173.17 237.55 174.236 237.55 175.55C237.55 176.864 238.311 177.93 239.25 177.93Z" fill="#263238"/>
<path d="M261.23 172.15C261.23 173.46 260.46 174.53 259.53 174.53C258.6 174.53 257.83 173.46 257.83 172.15C257.83 170.84 258.59 169.77 259.53 169.77C260.47 169.77 261.23 170.84 261.23 172.15Z" fill="#263238"/>
<path d="M224 180.87C224 180.87 219.7 174.76 217.66 179.51C215.62 184.26 217.66 188.12 219.66 191.3C221.66 194.48 226 196.06 226 196.06L224 180.87Z" fill="white"/>
<path d="M226 196.56C225.944 196.57 225.886 196.57 225.83 196.56C225.65 196.5 221.34 194.88 219.24 191.56C216.95 188 215.12 184.06 217.16 179.31C217.314 178.779 217.613 178.3 218.022 177.928C218.432 177.555 218.936 177.303 219.48 177.2C221.75 176.97 224.11 180.2 224.37 180.58C224.42 180.643 224.451 180.72 224.46 180.8L226.46 195.98C226.469 196.066 226.457 196.154 226.424 196.234C226.39 196.315 226.338 196.385 226.27 196.44C226.194 196.506 226.1 196.548 226 196.56ZM219.72 178.2H219.58C218.98 178.26 218.48 178.77 218.08 179.7C216.13 184.24 218.08 187.92 220.08 191.02C221.451 192.866 223.282 194.321 225.39 195.24L223.48 181.05C222.82 180.17 221.08 178.2 219.71 178.2H219.72Z" fill="#263238"/>
<path d="M274.48 173.4C274.48 173.4 274.93 169.09 276.75 169.54C278.57 169.99 281.96 173.4 279.92 178.15C277.88 182.9 275.84 187.9 275.84 187.9L274 178.61L274.48 173.4Z" fill="white"/>
<path d="M275.84 188.4C275.733 188.387 275.632 188.34 275.553 188.267C275.474 188.193 275.42 188.096 275.4 187.99L273.59 178.7C273.585 178.653 273.585 178.607 273.59 178.56L274.04 173.35C274.04 173.03 274.41 170.19 275.68 169.3C275.859 169.173 276.064 169.087 276.28 169.047C276.496 169.007 276.717 169.015 276.93 169.07C277.691 169.343 278.389 169.765 278.985 170.311C279.581 170.857 280.062 171.516 280.4 172.25C280.862 173.202 281.102 174.247 281.102 175.305C281.102 176.363 280.862 177.408 280.4 178.36C278.4 183.06 276.34 188.05 276.32 188.1C276.281 188.194 276.214 188.273 276.128 188.326C276.042 188.38 275.941 188.406 275.84 188.4ZM274.53 178.58L276.01 186.17C276.78 184.32 278.12 181.07 279.46 177.96C279.854 177.137 280.058 176.237 280.058 175.325C280.058 174.413 279.854 173.513 279.46 172.69C278.907 171.467 277.893 170.511 276.64 170.03C276.566 170.007 276.487 170.003 276.41 170.017C276.334 170.031 276.262 170.063 276.2 170.11C275.53 170.58 275.1 172.4 274.99 173.44L274.53 178.58Z" fill="#263238"/>
<path d="M469.59 450.56H50.44C50.3074 450.56 50.1802 450.507 50.0864 450.414C49.9927 450.32 49.94 450.193 49.94 450.06C49.94 449.927 49.9927 449.8 50.0864 449.706C50.1802 449.613 50.3074 449.56 50.44 449.56H469.59C469.723 449.56 469.85 449.613 469.944 449.706C470.037 449.8 470.09 449.927 470.09 450.06C470.087 450.192 470.034 450.317 469.941 450.411C469.848 450.504 469.722 450.557 469.59 450.56Z" fill="#263238"/>
</svg>
